<svg version="1.2" xmlns="http://www.w3.org/2000/svg" viewBox="0 0 1024 1024" width="1024" height="1024">
	<style>
		.s0 { fill: #e7d6b6 } 
		.s1 { fill: #2c4e6a } 
		.s2 { fill: #5d3e20 } 
		.s3 { fill: #ebddc0 } 
		.s4 { fill: #e8d9bb } 
		.s5 { fill: #90908f } 
		.s6 { fill: #c69640 } 
		.s7 { fill: #c79d4f } 
		.s8 { fill: #2c4d69 } 
		.s9 { fill: #ebddbf } 
		.s10 { fill: #2b4d69 } 
		.s11 { fill: #c49743 } 
		.s12 { fill: #ecdebf } 
		.s13 { fill: #a6a6a5 } 
		.s14 { fill: #30506b } 
		.s15 { fill: #2e4f6b } 
		.s16 { fill: #e7e9ea } 
		.s17 { fill: #ebeceb } 
		.s18 { fill: #eddcba } 
		.s19 { fill: #c0923c } 
		.s20 { fill: #e2d1b0 } 
		.s21 { fill: #e6e8e9 } 
		.s22 { fill: #c59a46 } 
		.s23 { fill: #674524 } 
		.s24 { fill: #e9ebeb } 
		.s25 { fill: #e9ebea } 
		.s26 { fill: #6e4d2b } 
		.s27 { fill: #e8eaea } 
		.s28 { fill: #e8eaeb } 
		.s29 { fill: #6d4b29 } 
		.s30 { fill: #ecddbc } 
		.s31 { fill: #e5d4b4 } 
		.s32 { fill: #989798 } 
		.s33 { fill: #613f1e } 
		.s34 { fill: #d5b574 } 
		.s35 { fill: #593c1d } 
		.s36 { fill: #ecdcba } 
		.s37 { fill: #eceeed } 
		.s38 { fill: #ecdbb9 } 
		.s39 { fill: #e2e6e5 } 
		.s40 { fill: #e3d3b4 } 
		.s41 { fill: #e4dcc2 } 
		.s42 { fill: #66411f } 
		.s43 { fill: #dbdedf } 
		.s44 { fill: #d9dcdd } 
		.s45 { fill: #30516e } 
		.s46 { fill: #c29a49 } 
		.s47 { fill: #684625 } 
		.s48 { fill: #c5a24e } 
		.s49 { fill: #775839 } 
		.s50 { fill: #edefef } 
		.s51 { fill: #eadcbc } 
		.s52 { fill: #6f4c2c } 
		.s53 { fill: #d0ac65 } 
		.s54 { fill: #e3d2b3 } 
		.s55 { fill: #dfc9a5 } 
		.s56 { fill: #c8a250 } 
		.s57 { fill: #e0cfae } 
		.s58 { fill: #e2d8c1 } 
		.s59 { fill: #dbdfdf } 
		.s60 { fill: #725335 } 
		.s61 { fill: #5f4122 } 
		.s62 { fill: #6c4927 } 
		.s63 { fill: #3a5b74 } 
		.s64 { fill: #e7dec4 } 
		.s65 { fill: #365770 } 
		.s66 { fill: #385a76 } 
		.s67 { fill: #caa250 } 
		.s68 { fill: #5d3b1f } 
		.s69 { fill: #dfcdaa } 
		.s70 { fill: #e3d5b5 } 
		.s71 { fill: #5e3d1c } 
		.s72 { fill: #634423 } 
		.s73 { fill: #e5d4b2 } 
		.s74 { fill: #ddcaa8 } 
		.s75 { fill: #e1e5e5 } 
		.s76 { fill: #c8a257 } 
		.s77 { fill: #7f5d3a } 
		.s78 { fill: #cb9f49 } 
		.s79 { fill: #7f5b38 } 
		.s80 { fill: #bb8c37 } 
		.s81 { fill: #d6ceb5 } 
		.s82 { fill: #d0ad68 } 
		.s83 { fill: #dde2e4 } 
		.s84 { fill: #dcccac } 
		.s85 { fill: #c9a458 } 
		.s86 { fill: #d1ae63 } 
		.s87 { fill: #6d4b2a } 
		.s88 { fill: #876644 } 
		.s89 { fill: #61401e } 
		.s90 { fill: #583516 } 
		.s91 { fill: #efe1c5 } 
		.s92 { fill: #6c4928 } 
		.s93 { fill: #caa659 } 
		.s94 { fill: #eddbb6 } 
		.s95 { fill: #6a4728 } 
		.s96 { fill: #704e2d } 
		.s97 { fill: #e1cfaf } 
		.s98 { fill: #c29f54 } 
		.s99 { fill: #c1943d } 
		.s100 { fill: #664321 } 
		.s101 { fill: #5d3b1e } 
		.s102 { fill: #daddde } 
		.s103 { fill: #c89e56 } 
		.s104 { fill: #ecdbbb } 
		.s105 { fill: #59381a } 
		.s106 { fill: #cfae6b } 
		.s107 { fill: #714e30 } 
		.s108 { fill: #6c4a29 } 
		.s109 { fill: #664525 } 
		.s110 { fill: #efe1c2 } 
		.s111 { fill: #cba04d } 
		.s112 { fill: #ceae5f } 
		.s113 { fill: #674523 } 
		.s114 { fill: #decba9 } 
		.s115 { fill: #73502c } 
		.s116 { fill: #5e3c20 } 
		.s117 { fill: #725031 } 
		.s118 { fill: #dde1e3 } 
		.s119 { fill: #e0caa9 } 
		.s120 { fill: #cdd4d8 } 
		.s121 { fill: #dae0e2 } 
		.s122 { fill: #664527 } 
		.s123 { fill: #d4ae5e } 
		.s124 { fill: #cdac54 } 
		.s125 { fill: #d5c3a5 } 
		.s126 { fill: #c5a24d } 
		.s127 { fill: #6b4b2a } 
		.s128 { fill: #e2d1b1 } 
		.s129 { fill: #ceab68 } 
		.s130 { fill: #ded6bf } 
		.s131 { fill: #755435 } 
		.s132 { fill: #5a381a } 
		.s133 { fill: #dfcba8 } 
		.s134 { fill: #654526 } 
		.s135 { fill: #d0ac60 } 
		.s136 { fill: #624124 } 
		.s137 { fill: #cba556 } 
		.s138 { fill: #634021 } 
		.s139 { fill: #d7c5a7 } 
		.s140 { fill: #d1ab5d } 
		.s141 { fill: #72502e } 
		.s142 { fill: #cda75f } 
		.s143 { fill: #e3d0a8 } 
		.s144 { fill: #e1e4e4 } 
		.s145 { fill: #c9d2d6 } 
		.s146 { fill: #56351b } 
		.s147 { fill: #714f2f } 
		.s148 { fill: #634121 } 
		.s149 { fill: #e2cb9e } 
		.s150 { fill: #d0bb99 } 
		.s151 { fill: #503417 } 
		.s152 { fill: #553416 } 
		.s153 { fill: #e9d9ba } 
		.s154 { fill: #c9a666 } 
		.s155 { fill: #cba55d } 
		.s156 { fill: #d3d8dc } 
		.s157 { fill: #6d4d2a } 
		.s158 { fill: #6c4c2b } 
		.s159 { fill: #d4c3a2 } 
		.s160 { fill: #d9c2a0 } 
		.s161 { fill: #d7b97f } 
		.s162 { fill: #c39a47 } 
		.s163 { fill: #674421 } 
		.s164 { fill: #6e4d2c } 
		.s165 { fill: #725233 } 
		.s166 { fill: #74512f } 
		.s167 { fill: #5d3c1e } 
		.s168 { fill: #426179 } 
		.s169 { fill: #dfcead } 
		.s170 { fill: #e2cda7 } 
		.s171 { fill: #724f2b } 
		.s172 { fill: #714e2d } 
		.s173 { fill: #cda859 } 
		.s174 { fill: #5f3b1b } 
		.s175 { fill: #72512e } 
		.s176 { fill: #644220 } 
		.s177 { fill: #755231 } 
		.s178 { fill: #d3ae5f } 
		.s179 { fill: #694423 } 
		.s180 { fill: #e9dabe } 
		.s181 { fill: #c69f53 } 
		.s182 { fill: #8a6b46 } 
		.s183 { fill: #e5d3b1 } 
		.s184 { fill: #684620 } 
		.s185 { fill: #d4d8da } 
		.s186 { fill: #593617 } 
		.s187 { fill: #664327 } 
		.s188 { fill: #512f13 } 
		.s189 { fill: #cba355 } 
		.s190 { fill: #d9d0be } 
		.s191 { fill: #e2cca7 } 
		.s192 { fill: #dacaab } 
		.s193 { fill: #ead9ba } 
		.s194 { fill: #e1d1b2 } 
		.s195 { fill: #603c1b } 
		.s196 { fill: #694828 } 
		.s197 { fill: #664422 } 
		.s198 { fill: #c9a352 } 
		.s199 { fill: #f0e4c8 } 
		.s200 { fill: #5e3a19 } 
		.s201 { fill: #522f13 } 
		.s202 { fill: #cea551 } 
		.s203 { fill: #d9d0b6 } 
		.s204 { fill: #f0e5ca } 
		.s205 { fill: #c29640 } 
		.s206 { fill: #e2e5e6 } 
		.s207 { fill: #f0efed } 
		.s208 { fill: #e0e4e4 } 
		.s209 { fill: #674728 } 
		.s210 { fill: #5d3a1c } 
		.s211 { fill: #6c4b2c } 
		.s212 { fill: #6a4b2a } 
		.s213 { fill: #553419 } 
		.s214 { fill: #c69847 } 
		.s215 { fill: #c89d4d } 
		.s216 { fill: #d8bb7e } 
		.s217 { fill: #e3d5b8 } 
		.s218 { fill: #563418 } 
		.s219 { fill: #e7d5b1 } 
		.s220 { fill: #6b4a27 } 
		.s221 { fill: #dbc6a4 } 
		.s222 { fill: #e1ccac } 
		.s223 { fill: #674422 } 
		.s224 { fill: #593416 } 
		.s225 { fill: #3c5a6e } 
		.s226 { fill: #553519 } 
		.s227 { fill: #5b3719 } 
		.s228 { fill: #dcc9a9 } 
		.s229 { fill: #c79947 } 
		.s230 { fill: #ede3cb } 
		.s231 { fill: #4f6570 } 
		.s232 { fill: #c6cdd2 } 
		.s233 { fill: #e7eae9 } 
		.s234 { fill: #674423 } 
		.s235 { fill: #c19635 } 
		.s236 { fill: #c9a958 } 
		.s237 { fill: #cdaa62 } 
		.s238 { fill: #516d85 } 
		.s239 { fill: #ccd2d4 } 
		.s240 { fill: #6e4e2e } 
		.s241 { fill: #ecddbd } 
		.s242 { fill: #eadbbc } 
		.s243 { fill: #5c3a19 } 
		.s244 { fill: #684727 } 
		.s245 { fill: #7a5935 } 
		.s246 { fill: #ccb593 } 
		.s247 { fill: #c79e51 } 
		.s248 { fill: #c29643 } 
		.s249 { fill: #ead7b1 } 
	</style>
	<g id="Layer 1">
		<path class="s0" d="m0 0c337.92 0 675.84 0 1024 0 0 337.92 0 675.84 0 1024-337.92 0-675.84 0-1024 0 0-337.92 0-675.84 0-1024z"/>
		<path class="s1" d="m260.79 618.68q3.28 0 6.55-0.04c23.21-0.11 46.1 3.68 68.84 7.94q5.99 1.13 11.98 2.22 5.99 1.1 11.98 2.2 22.89 4.23 45.86 8 1 0.17 2.04 0.34c20.92 3.45 41.81 6.04 62.96 7.66q1.38 0.11 2.8 0.22c16.69 1.23 33.48 0.98 50.2 0.78q1.62-0.02 3.28-0.04c44.98-0.72 89.21-9.21 133.36-17.02 68.41-12.09 68.41-12.09 101.11-12.5 1.08-0.03 1.08-0.03 2.18-0.05 8.05-0.14 14.84-0.08 21.07 5.61 3.42 3.74 3.3 7.27 3.2 12.11-0.16 2.37-0.41 4.69-0.7 7.04-1.79 15.75-0.49 31.65 1.43 47.32 0.76 6.24 1.23 12.24 1.07 18.53q-0.89-0.54-1.82-1.09c-25.56-13.09-65.82 0.58-92.5 6.37-12.32 2.68-24.68 5.13-37.06 7.53q-1.44 0.28-2.93 0.57-8.13 1.59-16.28 3.16-3.36 0.64-6.72 1.3c-9.51 1.83-19.04 3.36-28.63 4.72q-1.12 0.16-2.27 0.33c-12.76 1.82-25.5 3.13-38.37 3.89-2.48 0.19-2.48 0.19-5.15 0.71-4.12 0.64-8.2 0.87-12.36 1.06q-1.31 0.06-2.65 0.13c-9.61 0.42-19.21 0.52-28.82 0.51q-1.38 0-2.8 0c-53.89-0.1-107.07-7.02-159.72-18.36-7.98-1.7-15.98-3.29-23.98-4.89q-1.28-0.26-2.59-0.52c-15.08-3.02-30.18-5.88-45.35-8.42-1.61-0.28-1.61-0.28-3.26-0.56-6.98-1.15-13.79-1.86-20.87-1.88q-1.41 0-2.86-0.01c-7.33 0.12-12.82 1.31-19.01 5.45 0.41-7.97 0.94-15.84 2.06-23.75 1.06-7.93 1.13-15.82 1.13-23.81q0-1.8 0-3.64c-0.04-6.04-0.32-11.83-1.19-17.8-1.12-11.45-1.12-11.45 2.69-16.12 6-6.24 14.11-5.22 22.1-5.2z"/>
		<path class="s2" d="m356 392c3.5 0.87 6.13 2.05 9.28 3.73 18.32 9.75 37.65 11.44 58.08 11.68 13.75 0.17 27.18 0.54 40.64 3.59q1.58 0.34 3.21 0.69c12.17 2.93 24.54 9.78 32.79 19.31q0 1.48 0 3c-4.07-1.46-7.44-3.46-11.06-5.81-20.14-12.57-42.7-14.86-65.94-15.88q-6.34-0.3-12.69-0.63-1.49-0.08-3.03-0.16c-14.89-0.82-29.63-2.6-42.57-10.57-1.68-1.11-1.68-1.11-3.71-0.95q-0.34 1.07-0.69 2.17-1.56 4.91-3.12 9.83-0.53 1.68-1.08 3.41c-0.53 1.65-0.53 1.65-1.07 3.34q-0.47 1.5-0.97 3.05-1.19 3.57-2.53 7.1c-1.51 3.97-2.88 7.98-4.21 12.02q-0.36 1.09-0.74 2.21-1.17 3.53-2.34 7.06-0.82 2.45-1.63 4.91-1.6 4.81-3.2 9.62-2.55 7.67-5.11 15.34-0.79 2.39-1.59 4.77-4.35 13.06-8.7 26.12-0.52 1.54-1.04 3.13-0.94 2.79-1.91 5.57-0.41 1.18-0.84 2.4-0.35 1-0.72 2.04c-0.68 2.22-0.68 2.22-0.51 5.91 26.98 14.82 59.92 15.23 90.07 16.88 18.66 1.03 36.27 2.72 53.93 9.12q1.56 0.55 3.16 1.12c16.02 6.12 34.01 18.21 41.84 33.88 0.33-48.51 0.66-97.02 1-147q2.46-0.99 5-2c0.33 49.17 0.66 98.34 1 149 3.3-4.29 6.6-8.58 10-13 27.58-27.58 64.74-30.38 101.55-32.12 26.97-1.28 52.81-4.23 77.45-15.88-0.51-7.83-2.62-14.66-5.15-22.07q-0.62-1.84-1.25-3.73-1.64-4.89-3.3-9.77-1.34-3.97-2.67-7.94c-4.45-13.46-4.45-13.46-9.24-26.8-1.46-3.88-2.8-7.78-4.1-11.71q-0.37-1.12-0.75-2.26-1.18-3.55-2.35-7.09-0.77-2.32-1.54-4.64-0.38-1.14-0.77-2.32-0.77-2.31-1.55-4.62-2.03-6.08-3.95-12.19-0.39-1.24-0.8-2.52-0.76-2.4-1.5-4.8c-0.6-1.88-1.33-3.71-2.08-5.54-4.08-1.36-6.53 0.19-10.31 1.75-18.99 7.47-38.93 8.57-59.09 9.28-22.65 0.83-42.75 4.49-62.6 15.97q-0.98 0.49-2 1c0.32-3.78 1.35-6.12 4.2-8.68 13.11-9.57 31.19-13.38 47.14-13.53q2.44-0.04 4.87-0.08 1.26-0.02 2.56-0.04c39.01-0.05 39.01-0.05 74.38-14.67q0.91-0.49 1.85-1c3 1 3 1 3.98 2.73q0.42 1.1 0.84 2.23c0.46 1.2 0.46 1.2 0.93 2.43q0.46 1.25 0.94 2.55 0.48 1.25 0.97 2.53c2.34 6.21 2.34 6.21 2.34 8.53q3.03-0.15 6.05-0.29c0.97 0.14 0.97 0.14 1.95 0.29 2 3 2 3 2 6 1.64 0.09 1.64 0.09 3.31 0.19 3.69 0.81 3.69 0.81 5.5 3.19q0.59 1.29 1.19 2.62 0.99 1.48 2 3c2.26 0.13 4.36-0.13 6.61-0.38 3.64 0.58 4.99 2.67 7.39 5.38 1.57 2.89 1.57 2.89 2.91 6.1q0.76 1.79 1.54 3.63 0.81 1.95 1.61 3.9 1.3 3.06 2.6 6.13 0.89 2.09 1.77 4.18c2.72 6.45 5.57 12.85 8.45 19.25 11.45 25.66 22.32 51.57 33.13 77.51q0.55 1.32 1.12 2.68 1.03 2.47 2.06 4.94 2.87 6.89 6.01 13.66c1.28 3.22 1.39 5.63 0.8 9.02-2.76 3.6-4.23 4.87-8.75 5.64q-2.12 0.05-4.25 0.05-2.3 0.06-4.6 0.14-1.12 0.03-2.28 0.07c-3.89 0.19-7.68 0.89-11.51 1.54-3.97 0.62-7.95 1.08-11.94 1.51q-1.17 0.13-2.38 0.26-3.65 0.4-7.29 0.79-2.18 0.24-4.35 0.47-1.04 0.11-2.12 0.23c-16.4 1.78-32.76 3.68-49.11 5.94-8.31 1.13-16.62 2.04-24.98 2.68-4.55 0.36-9.03 0.9-13.53 1.62-7.02 1.12-14.05 1.89-21.11 2.63q-7.12 0.77-14.23 1.58-6.38 0.72-12.77 1.41-6.45 0.69-12.88 1.46-2.45 0.29-4.9 0.54c-9.01 0.94-16.25 2.2-23.7 7.81-9.52 6.68-24.23 5.61-35.32 4.63-4.88-0.9-9.75-1.93-13.5-5.38-6.27-5.62-13.06-6.05-21.16-6.86q-2.22-0.25-4.44-0.5-4.76-0.55-9.53-1.04-7.6-0.81-15.2-1.67-10.68-1.2-21.37-2.36-15.72-1.73-31.42-3.56-1.25-0.14-2.54-0.29-5.02-0.58-10.03-1.17-8.64-1-17.27-1.99-28.25-3.24-56.48-6.62-1.49-0.18-3.03-0.36-7.88-0.94-15.75-1.92-2.25-0.28-4.51-0.55-3.08-0.38-6.15-0.77-1.67-0.2-3.4-0.42c-4.59-0.77-8.83-1.6-12.72-4.23-2.18-3.36-1.28-5.44-0.5-9.31 1.11-3.07 1.11-3.07 2.53-6.21q0.8-1.79 1.62-3.65c0.43-0.96 0.43-0.96 0.88-1.94q2.4-5.34 4.76-10.69 0.51-1.14 1.03-2.31c3.68-8.3 7.25-16.65 10.8-25 8.34-19.55 16.85-39.01 25.42-58.46q5.04-11.45 9.97-22.95c1.63-3.78 3.3-7.54 5.06-11.25q0.45-0.95 0.91-1.93c1.02-1.61 1.02-1.61 4.02-3.61q2.5-0.21 5-0.25c2.65-0.13 2.65-0.13 5-0.75 2.04-2.83 2.04-2.83 3-6 3.23-2.15 4.28-2.2 8-2q0.22-1.2 0.44-2.44c0.56-2.56 0.56-2.56 1.56-3.56 3.96-0.5 3.96-0.5 8-1 3.46-9.9 3.46-9.9 7-20z"/>
		<path class="s3" d="m607 350c3.67 11.03 5.22 20.43 5 32q-2.46 0-5 0c-1.53-4.23-2.45-8.24-3.06-12.69-0.46-3.27-0.9-6.18-1.94-9.31 0.56 7.02 1.18 14.01 2 21-2.31-0.33-4.62-0.66-7-1q-0.18-1.38-0.37-2.81-0.25-1.79-0.51-3.63-0.24-1.78-0.49-3.62c-0.31-1.45-0.31-1.45-0.63-2.94q-0.99-0.49-2-1c0.5 6.44 0.5 6.44 1 13-4.62 0-9.24 0-14 0q0 0.99 0 2c1.04-0.05 1.04-0.05 2.11-0.11 7.47-0.19 14.62 0.45 22.02 1.49q1.37 0.18 2.8 0.38 1.3 0.19 2.64 0.39 1.17 0.17 2.37 0.35c2.06 0.5 2.06 0.5 5.06 2.5q-0.83 0.01-1.69 0.01-8.76 0.07-17.52 0.2-3.27 0.04-6.53 0.06-4.71 0.04-9.42 0.12c-1.44 0-1.44 0-2.92 0-5.46 0.12-9.4 0.84-14.15 3.59-3.15 1.81-6.56 3-9.96 4.27q-1.02 0.4-2.07 0.81c-3.7 1.4-6.78 2.28-10.74 1.94q0 0.99 0 2 6.91-0.76 13.81-1.54 2.34-0.27 4.68-0.52c8.76-0.97 17.25-2.12 25.8-4.36 2.71-0.58 2.71-0.58 7.71-0.58-0.99 4.95-0.99 4.95-2 10q1.48-0.49 3-1c0.66-3.3 1.32-6.6 2-10 2.31 0 4.62 0 7 0q-0.21 2.94-0.44 5.88c-0.12 1.63-0.12 1.63-0.24 3.3-0.32 2.82-0.32 2.82-1.32 4.82 6.93 0.5 6.93 0.5 14 1q0 0.49 0 1c-4.5 1.11-8.92 1.17-13.53 1.21q-2.54 0.04-5.09 0.09-3.97 0.06-7.94 0.1c-18.64 0.2-43.17 1.84-57.56 15.23-2.19 2.26-2.19 2.26-1.88 5.37q0.87-0.56 1.77-1.14c21.8-13.61 46.05-15.53 71.17-16.3 18.77-0.62 35.36-3.31 53.01-9.85 2-0.69 3.99-1.23 6.05-1.71 2.62 3.99 4.21 8.08 5.67 12.59 0.37 1.1 0.37 1.1 0.74 2.22q1.18 3.56 2.34 7.13 0.81 2.45 1.62 4.9c3.21 9.74 6.39 19.49 9.4 29.28 1.2 3.88 2.52 7.66 4.07 11.42 2.3 5.72 4.3 11.53 6.27 17.38q0.55 1.65 1.13 3.35 1.16 3.47 2.32 6.94 1.79 5.32 3.59 10.62 1.14 3.39 2.27 6.78 0.54 1.57 1.09 3.19c2.99 9.04 2.99 9.04 2.49 14.2-22.85 15.35-54.32 15.72-80.94 17-35.99 1.73-73.81 5.15-100.06 33-2.61 3.37-4.96 6.9-7.29 10.47q-0.84 1.25-1.71 2.53-0.49 0-1 0c0-49.83 0-99.66 0-151-1.98 0.99-3.96 1.98-6 3 0-4 0-4 1.72-6 1.16-0.99 1.16-0.99 2.34-2 1.13-0.99 1.13-0.99 2.29-2 2.16-1.63 3.95-2.64 6.34-3.8 3.56-1.91 3.56-1.91 4.55-5.49 0.32-1.93 0.32-1.93 0.64-3.9 1.3-6.5 3.34-12.16 6.37-18.06q0.52-1.07 1.05-2.16c2.87-5.38 6.07-7.48 11.7-9.59q1.11-0.42 2.25-0.84 3.52-1.27 7.06-2.47c9.63-3.43 17.37-7.37 24.69-14.69-3.96 0-7.92 0-12 0 2.65-2.65 4.93-2.86 8.56-3.75 10.61-2.96 16.74-8.19 24.28-16.08 4.15-4.17 4.15-4.17 7.16-4.17z"/>
		<path class="s4" d="m343 417q1.97 0 4 0c-1.36 6.68-3.23 12.98-5.49 19.4q-0.51 1.47-1.04 2.98-1.67 4.78-3.34 9.56-1.16 3.31-2.32 6.63-3.39 9.72-6.81 19.43-0.47 1.35-0.96 2.74-2.83 8.04-5.67 16.07-0.36 1.03-0.73 2.08-3.42 9.73-6.93 19.42-0.5 1.39-1.02 2.83-0.89 2.48-1.81 4.96c-1.46 4.06-2.59 7.58-1.88 11.9 12 11.71 34.86 15.29 50.69 17.13q1.02 0.12 2.06 0.24c14.73 1.76 29.5 2.43 44.32 2.95 10.1 0.36 19.92 1.11 29.93 2.68q1.18 0.17 2.4 0.35c22.2 3.26 45.86 13.18 59.6 31.65-3.66-1.34-6.66-3-9.88-5.19-19.75-12.72-42.67-19.23-66.12-18.81q1 0.14 2.03 0.29c24.8 3.58 48.84 8.76 68.97 24.71q0.99 1.48 2 3c-4.71-0.62-8.56-2.65-12.75-4.75-21.48-10.39-45.66-14.49-69.38-14.31-1.72 0-1.72 0-3.47 0.01q-4.2 0.02-8.4 0.05 0.83 0.02 1.69 0.04c29.35 0.85 57.42 5.24 83.31 19.96q0.97 0.55 1.98 1.12 2.51 1.44 5.02 2.88-0.99 0.49-2 1-3.2-1.24-6.31-2.69c-33.54-14.89-71.73-13.53-107.69-13.31q1.75 0.19 3.55 0.4c42.31 4.73 42.31 4.73 61.39 8.07q5.22 0.9 10.45 1.75c36.65 6.07 36.65 6.07 42.61 11.78q0 0.98 0 2 1.54-0.74 3.12-1.5c7.48-2.83 16.19-2.19 23.88-0.5 3.54 0.42 3.54 0.42 7 0q0.76-0.91 1.54-1.85c3.88-3.39 8.31-3.88 13.27-4.9q1.73-0.37 3.51-0.75c32.31-6.67 64.81-11.62 97.68-14.5-26.53-0.38-26.53-0.38-53 1q-1.34 0.12-2.72 0.25c-18.74 1.76-36.43 5.49-53.49 13.65q-2.37 1.11-4.79 2.1-0.98-0.49-2-1c31.74-20.01 63.28-24.41 100-25-33.84-0.38-68.1 0.36-97.96 18.83q-1.01 0.58-2.04 1.17-0.98-0.49-2-1c5.62-5.39 11.38-9.18 18.31-12.69q1.31-0.68 2.65-1.39c8.68-4.48 17.64-7.86 27.16-10.04 1.06-0.25 1.06-0.25 2.14-0.5 7.84-1.75 15.76-2.62 23.74-3.38-26.01-1.11-52.19 7.3-72.77 23.34-2.02 1.5-3.94 2.62-6.23 3.66 10.94-13.53 24.06-22.67 40.25-28.81q1.03-0.4 2.09-0.81c16.71-5.95 33.96-7.18 51.53-8.01q6.41-0.32 12.81-0.66 1.55-0.08 3.14-0.16c29.21-1.61 57.56-4.49 83.18-19.55q-0.15-1.72-0.31-3.5-0.09-0.97-0.18-1.97c-0.57-2.84-1.58-5.41-2.61-8.11-1.76-4.7-3.39-9.45-5.04-14.19q-1.24-3.54-2.48-7.08-0.98-2.81-1.96-5.62c-7.97-22.79-7.97-22.79-16.08-45.53q-0.52-1.47-1.07-2.98-2.46-6.86-4.95-13.71-0.87-2.42-1.74-4.83-0.4-1.08-0.8-2.19c-1.05-2.91-1.78-5.18-1.78-8.29q1.97 0 4 0c5.12 11.91 9.94 23.88 14.44 36.04q2.43 6.55 4.88 13.1 0.47 1.28 0.96 2.6 3.95 10.56 8.03 21.07c5.03 13.01 9.9 26.09 14.69 39.19q0.5 1.37 1.02 2.78 1.31 3.61 2.6 7.22 0.37 1.02 0.76 2.07c0.99 2.8 1.62 4.93 1.62 7.93-7.49 2.94-14.87 5.06-22.75 6.63q-1.55 0.31-3.15 0.64c-8 1.59-15.99 2.86-24.1 3.73 15.58 0.41 30.4-0.96 45.45-5.1 3.54-0.9 6.93-1.45 10.55-1.9q-9.61-25.48-19.44-50.88-0.54-1.4-1.1-2.86-5.84-15.09-11.7-30.17-3.22-8.31-6.43-16.63-1.35-3.52-2.72-7.04-1.97-5.08-3.92-10.17-0.59-1.49-1.19-3.03-0.52-1.36-1.05-2.77-0.46-1.18-0.93-2.4c-0.52-2.05-0.52-2.05 0.48-5.05 3.79 2.35 4.96 4.59 6.52 8.71q0.66 1.72 1.34 3.49 0.68 1.84 1.39 3.74 0.73 1.92 1.47 3.84 1.47 3.84 2.93 7.68 2.65 6.92 5.41 13.79 0.48 1.19 0.97 2.41c2.45 6.11 4.99 12.2 7.53 18.28 8.91 21.28 17.7 42.63 25.94 64.19q0.57 1.45 1.15 2.95c0.5 1.33 0.5 1.33 1.01 2.68q0.42 1.12 0.87 2.28c0.47 1.96 0.47 1.96-0.53 4.96-2.87 1.16-5.6 2.09-8.56 2.94q-1.32 0.38-2.67 0.78c-13.94 3.92-28.37 6-42.77 7.28 7.07 0.17 13.87-0.29 20.87-1.25 1.49-0.2 1.49-0.2 3-0.4 9.15-1.26 18.18-3.01 27.21-4.94q3.46-0.73 6.92-1.41c0.66 2.31 1.32 4.62 2 7-14.31 3.22-28.68 5.61-43.19 7.75q-3.19 0.48-6.39 0.96-7.71 1.15-15.42 2.29c1.87-0.2 1.87-0.2 3.78-0.41 7.84-0.84 15.68-1.66 23.55-2.27 9.84-0.78 19.47-2.17 29.17-4q1.36-0.25 2.75-0.52 1.19-0.23 2.42-0.46c2.47-0.36 4.83-0.4 7.33-0.34-4.55-12.67-9.44-25.16-14.62-37.58q-3.13-7.51-6.24-15.03-0.64-1.53-1.29-3.11-6.72-16.21-13.35-32.47-0.56-1.37-1.13-2.77-2.19-5.34-4.37-10.68-2.83-6.95-5.67-13.89-1.2-2.91-2.39-5.83-1.38-3.38-2.77-6.75c-1.87-4.59-3.69-9.15-5.17-13.89 2.87 1.02 3.88 1.79 5.44 4.45q0.66 1.56 1.35 3.16 0.77 1.8 1.57 3.66 0.85 2.02 1.7 4.04 0.91 2.12 1.82 4.23 2.53 5.92 5.02 11.85 1.71 4.07 3.43 8.13 4.93 11.64 9.83 23.29c4.63 11.01 9.33 21.97 14.18 32.88 4.35 9.82 8.49 19.73 12.57 29.66q1.52 3.68 3.05 7.35 0.83 2.02 1.66 4.05 0.7 1.69 1.42 3.42c0.96 2.83 0.96 2.83 0.96 6.83-1.65 0.2-1.65 0.2-3.33 0.4q-7.8 0.92-15.61 1.85-1.42 0.17-2.88 0.34-19.86 2.36-39.71 4.78-15.15 1.84-30.32 3.56-9.96 1.15-19.9 2.51c-10.62 1.42-21.27 2.52-31.93 3.61-17.19 1.77-34.35 3.83-51.5 5.93-1.56 0.19-1.56 0.19-3.14 0.38q-2.89 0.36-5.78 0.71c-5.53 0.68-11.04 1.19-16.6 1.52-3.53 0.63-5.03 2.76-7.3 5.41-10.41 5.12-23.13 5.81-34.43 3.21-3.86-1.5-6.87-3.01-9.57-6.21q0-0.98 0-2-1.8-0.17-3.65-0.34-6.79-0.62-13.58-1.26-2.92-0.27-5.84-0.54c-9.78-0.9-19.49-1.83-29.18-3.43-4.21-0.66-8.44-1.05-12.69-1.43-5.69-0.54-11.34-1.14-17-2-5.5-0.83-11-1.38-16.54-1.87-12.69-1.17-25.3-2.85-37.93-4.53-11.6-1.53-23.17-2.89-34.82-3.9-7.98-0.69-15.9-1.67-23.83-2.76-8.47-1.16-16.89-2.17-25.43-2.69-2.51-0.25-2.51-0.25-4.51-1.25 0.53-4.85 1.54-8.8 3.52-13.26q0.78-1.77 1.58-3.6 0.86-1.91 1.71-3.83 0.89-2.01 1.77-4.01 1.82-4.14 3.64-8.27c2.67-6.03 5.25-12.09 7.84-18.15q1.49-3.48 2.98-6.96 1.48-3.46 2.96-6.92 2.97-6.94 5.94-13.88 0.73-1.7 1.48-3.47 3.93-9.16 7.91-18.31 1.68-3.86 3.36-7.72 0.4-0.93 0.82-1.89 6.11-14 11.78-28.17 0.49-1.24 1-2.51 0.43-1.07 0.86-2.17c0.85-1.88 0.85-1.88 2.85-4.88q0.98 0 2 0c-0.64 3.83-1.76 7.13-3.27 10.71q-0.7 1.68-1.42 3.41-0.38 0.9-0.77 1.82-2.06 4.88-4.09 9.78c-0.43 1.02-0.43 1.02-0.86 2.06-3.06 7.33-6.05 14.68-9.03 22.03q-0.81 2.01-1.63 4.02-3.72 9.17-7.42 18.34-2.07 5.1-4.14 10.2-0.4 1-0.81 2.02-5.62 13.86-11.5 27.61c-7.35 14.57-7.35 14.57-11.06 30 8.55 2.33 17.03 3.9 25.81 5.06q1.87 0.26 3.79 0.52c18.14 2.5 18.14 2.5 36.4 3.42q-1.3-0.19-2.63-0.4c-14.88-2.23-29.76-4.48-44.62-6.85q-1.52-0.24-3.09-0.49c-4.24-0.68-8.46-1.4-12.66-2.26 0.66-2.64 1.32-5.28 2-8q1.9 0.43 3.86 0.88c15.6 3.46 31.21 5.81 47.14 7.12-3.14-0.81-6.28-1.41-9.48-1.95-28.37-4.79-28.37-4.79-38.52-10.05 2.17-7.86 5-15.35 8.05-22.91q0.74-1.85 1.49-3.71 1.97-4.93 3.96-9.85 1.64-4.09 3.28-8.18c6.45-16.08 12.95-32.13 19.59-48.13q4.1-9.86 8.03-19.78 0.42-1.05 0.85-2.13 1.98-5.01 3.93-10.03 0.69-1.73 1.39-3.52 0.6-1.52 1.21-3.09c1.17-2.56 2.34-4.58 4.22-6.67q0.98 0 2 0c-0.57 6.04-2.38 11.13-4.62 16.75q-0.56 1.42-1.13 2.88-1.2 3.08-2.42 6.15-2.58 6.57-5.15 13.14-1.33 3.41-2.67 6.82c-6.47 16.52-12.79 33.1-19.11 49.68q-2.64 6.93-5.34 13.85-1.63 4.21-3.25 8.42-0.55 1.39-1.12 2.82-0.47 1.23-0.95 2.5-0.4 1.02-0.81 2.08c-0.51 2.28-0.15 3.71 0.57 5.91 17.71 4.48 33.68 7.18 52 7q-1-0.15-2.03-0.3c-35.11-5.32-35.11-5.32-46.97-10.7 2.45-10.2 6.12-19.93 9.75-29.75q1-2.72 2-5.44c6.04-16.41 12.32-32.72 18.63-49.02q2.95-7.62 5.83-15.25 0.38-1 0.76-2.02 1.73-4.57 3.44-9.14 4.08-10.78 8.59-21.38z"/>
		<path class="s5" d="m682 282c-1.43 2.87-3.32 3.11-6.25 4.38-10.17 4.94-18.21 13.28-25.29 22-3.71 4.11-7.38 5.38-12.71 6.81q-1.89 0.51-3.83 1.04-1.44 0.38-2.92 0.77c2.31 0.33 4.62 0.66 7 1 0 2 0 2-1.4 3.41q-0.97 0.81-1.98 1.65c-4.14 3.51-8.14 7.15-12.13 10.83-5.41 4.58-10.05 6.86-16.86 8.36q-1.1 0.26-2.24 0.52-2.69 0.63-5.39 1.23c5.44 0.5 5.44 0.5 11 1-11.5 14.13-21.75 24.2-40 28 3.63 0 7.26 0 11 0-6.33 8.94-15.47 13.09-25.71 16.2-8.91 2.78-16.58 5.24-21.52 13.58-3.18 6.5-5.03 12.77-6.14 19.91-0.67 4.17-1.08 5.8-4.22 8.7q-3.13 2.03-6.38 3.86c-4.46 2.57-8.69 6.08-11.03 10.75q-0.99-0.49-2-1c0.49-0.92 0.49-0.92 1-1.85 1.18-3.72 1.11-6.83 1.07-10.7-0.04-12.02-0.04-12.02 2.71-16.07 2.28-1.63 2.28-1.63 4.75-3 4.44-2.48 7.29-6.49 10.47-10.38q1.01-1.1 2.05-2.23c4.8-5.74 5.42-10.37 5.11-17.6-0.53-12.63 3.42-22.57 9.84-33.17q0.49 0 1 0 0.49 2.46 1 5 0.22-0.8 0.45-1.62c3.44-11.44 10.47-22.66 20.55-29.38q0.98 2.46 2 5 0.49 0 1 0 0.37-1.56 0.75-3.18c3.58-12.34 17.58-19.61 27.99-25.58 11.41-6.24 11.41-6.24 16.26-6.24 0.5 1.49 0.5 1.49 1 3q1.39-1.32 2.81-2.69c16.64-14.17 46.47-15.64 67.19-12.31z"/>
		<path class="s6" d="m511.44 237.63c1.28 0 1.28 0 2.58 0.01 12.54 0.08 24.71 0.52 36.98 3.36q1.46 0.33 2.97 0.67c10.68 2.43 20.91 5.09 31.03 9.33q1.8 0.68 3.66 1.39c12.94 4.94 25.03 11.23 36.59 18.86q0.91 0.6 1.84 1.21c3.74 2.54 6.82 5.27 9.91 8.54q-3.8 1.56-7.63 3.06-1.06 0.44-2.16 0.9c-4.47 1.74-7.47 2.57-12.21 1.04-2.91-1.39-5.7-2.97-8.5-4.56-17.24-9.37-35.53-14.78-54.66-18.84q-2.6-0.55-5.2-1.14c-24.33-5.57-52.54-4.26-76.64 1.54q-1.21 0.27-2.45 0.55c-33.98 7.67-65.32 23.65-91.55 46.45q-0.82 0.71-1.67 1.45c-32.89 28.69-56.61 69.2-63.33 112.55q-0.49 0-1 0c-0.31-7.51 0.54-14.41 2.06-21.75q0.33-1.62 0.67-3.28c8.31-38.97 26.87-72.24 54.27-100.97q1.19-1.27 2.42-2.58c6.64-6.89 13.94-12.71 21.58-18.42q1.29-0.97 2.62-1.97c6.8-4.91 14.02-9.05 21.38-13.03q0.93-0.5 1.88-1.02c14.24-7.62 29.03-13.06 44.62-17.23q1.29-0.35 2.62-0.71c15.68-4.01 31.17-5.57 47.32-5.41z"/>
		<path class="s7" d="m513 273c2.4 2.4 2.34 3.33 2.63 6.63 0.11 1.22 0.11 1.22 0.22 2.47q0.07 0.94 0.15 1.9 1.69-0.09 3.44-0.19c18.5 0.15 35.08 6.93 50.69 16.44q1.01 0.61 2.06 1.25c4.64 2.97 4.64 2.97 5.49 5.64q0.16 0.92 0.32 1.86c-3.66-1.34-6.66-3-9.87-5.19-16.1-10.4-32.37-14.26-51.13-16.81 0.5 3.46 0.5 3.46 1 7q1.2 0 2.43 0.01c17.18 0.58 36.65 7.31 49.57 18.99q0 0.99 0 2c-4.08-1.48-7.55-3.49-11.25-5.75-12.71-7.45-26.29-11.03-40.75-13.25 0.5 3.46 0.5 3.46 1 7 1.83-0.12 1.83-0.12 3.69-0.25 13.47 0.02 29.54 7.4 40.31 15.25q0.99 1.48 2 3c-4.74 0-6.17-1.13-10.12-3.63-10.94-6.58-23.32-10.34-35.88-12.37q0.19 0.88 0.38 1.79c1.37 6.52 2.33 13.03 3.12 19.65q0.19 1.54 0.38 3.13c1.15 9.46 2.17 18.94 3.12 28.43 2.48-0.99 2.48-0.99 5-2q-0.46 0.92-0.94 1.88c-1.18 2.91-1.18 2.91-1.03 5.29 0.06 4.66-0.4 7.06-3.43 10.75-1.92 1.93-3.9 3.72-5.94 5.54-3.05 2.68-3.05 2.68-5.66 7.54 3.96 0 7.92 0 12 0 0 6 0 6-1 8-3.44-1.53-6.12-3.6-9-6 0.58 0.76 0.58 0.76 1.16 1.54 3.95 5.64 3.95 5.64 3.4 9.59-1.69 3.12-3.4 6.04-5.56 8.87q-0.99 0-2 0c-0.5-10.39-0.5-10.39-1-21q-2.12 2.09-4.31 4.25c-1.2 1.18-1.2 1.18-2.43 2.39q-1.11 1.16-2.26 2.36-0.88 0.88-1.78 1.78c-1.85 3.37-1.54 6.74-1.41 10.47q0.02 1.11 0.04 2.26 0.06 2.74 0.15 5.49-0.99-0.49-2-1 0-1.48 0-3c-0.84 0.74-0.84 0.74-1.69 1.5-2.69 1.75-4.16 1.76-7.31 1.5-0.75-1.7-0.75-1.7-1-4 1.65-2.36 1.65-2.36 3.94-4.75 1.12-1.2 1.12-1.2 2.27-2.42q0.88-0.9 1.79-1.83c-2.31-0.66-4.62-1.32-7-2q-0.34 0.83-0.69 1.69c-1.67 2.94-3.86 4.99-6.31 7.31q-1.48-0.49-3-1c2.31-2.64 4.62-5.28 7-8-11.63-2.19-23.3-3.95-35.02-5.55-6.72-0.94-13.34-2.05-19.98-3.45 0.66 3.3 1.32 6.6 2 10q-1.48-0.49-3-1c-0.73-2.07-0.73-2.07-1.19-4.56q-0.23-1.24-0.48-2.51-0.16-0.95-0.33-1.93-2.95-0.49-6-1c0.33 3.63 0.66 7.26 1 11q-0.99-0.49-2-1c-0.63-2.29-0.63-2.29-1.12-5.06q-0.26-1.37-0.51-2.79-0.18-1.06-0.37-2.15-2.95-0.49-6-1c0.33 3.96 0.66 7.92 1 12q-1.48 0-3 0c-1.28-2.57-1.33-4.77-1.56-7.63q-0.13-1.49-0.26-3.03-0.09-1.15-0.18-2.34c-1.07-0.18-1.07-0.18-2.15-0.37q-1.37-0.25-2.79-0.51-1.37-0.24-2.77-0.49-1.13-0.31-2.29-0.63-0.49-0.99-1-2c1.86-0.5 1.86-0.5 3.75-1q1.04-0.28 2.11-0.56c2.14-0.44 2.14-0.44 6.14-0.44q-0.05-1.03-0.11-2.1c-0.7-25.4 10.7-46.42 27.11-64.9q1.11-1.26 2.26-2.55c10.67-11.34 24.1-19.31 38.74-24.45q1.97 0 4 0c-0.49 1.49-0.49 1.49-1 3-2.23 1-4.39 1.83-6.69 2.63-24.79 9.32-42.33 29.2-53.74 52.64-4.82 10.89-6.29 22.99-7.57 34.73 1.76-0.49 1.76-0.49 3.56-1 3.85-1.08 7.45-1.08 11.44-1q0.11-1.34 0.23-2.72c1.8-17.15 7.98-32.43 19.56-45.44 2.64-2.75 2.64-2.75 2.02-6.71q-0.4-1.54-0.81-3.13 1.3 0.63 2.64 1.27c3.4 1.14 3.4 1.14 6.12-0.95q1.44-1.29 2.93-2.63c5.32-4.51 10.81-7.74 17.12-10.69q1.18-0.56 2.39-1.13c7-3.19 13.5-5.17 21.3-4.99 1.56 0.02 1.56 0.02 3.16 0.05q1.15 0.03 2.34 0.07c0.51 12.29-1.02 23.9-3 36q-0.31 1.91-0.63 3.87-2.15 13.07-4.37 26.13c-3.58 0-3.91-0.51-6.41-2.9q-1.01-0.95-2.04-1.93-1.07-1.04-2.17-2.11-1.11-1.05-2.25-2.14c-8.17-7.84-16.17-15.86-24.13-23.92q1.39 2.13 2.79 4.25 0.77 1.17 1.57 2.38c2.32 3.35 4.93 6.33 7.64 9.37q-0.49 0.99-1 2-2.25-2.69-4.5-5.37-0.67-0.81-1.37-1.63c-3.6-4.32-7.05-8.74-10.44-13.23q-0.83-0.87-1.69-1.77-1.48 0-3 0c-12.69 13.63-17.97 29.91-20 48 2.31 0 4.62 0 7 0-8.19 4.09-17.92 3.82-27 5 33 0 66 0 100 0 0.33-36.96 0.66-73.92 1-112z"/>
		<path class="s8" d="m793 670c8.26 1.84 15.96 4.32 23.75 7.63q1.56 0.65 3.16 1.33c11.79 5.08 22.59 11.11 33.09 18.48q0.91 0.63 1.84 1.29c1.43 1.03 2.8 2.15 4.16 3.27q0 0.99 0 2-0.93 0.47-1.89 0.96c-12.08 6.15-23.92 12.36-35.11 20.04 0.46 5.27 1.89 9.5 3.93 14.38 1.74 4.25 3.12 8.61 4.51 12.99q0.44 1.41 0.9 2.85 3.09 9.94 5.66 20.03 0.33 1.27 0.67 2.58c1.45 5.92 1.45 5.92 0.33 8.17q-1.43-0.94-2.9-1.91c-15.95-10.31-31.77-17.15-50.1-22.09-1.67-0.46-1.67-0.46-3.37-0.93-9.86-2.59-19.91-4.44-30.01-5.82q-1.37-0.19-2.79-0.38-2.69-0.36-5.38-0.69c-16.32-2.15-16.32-2.15-20.45-7.18-0.56-3.44-0.56-3.44 0-7 4.16-4.16 6.98-5.13 12.78-5.14 1.13 0.01 1.13 0.01 2.28 0.01q1.09 0 2.2-0.01c3.74 0.01 7.37 0.17 11.08 0.63 5.4 0.66 10.78 0.73 16.22 0.76q1.48 0.03 3 0.06c7.44 0.04 12.84-1.07 19.25-5.06 4.79-4.93 5.55-10.11 5.56-16.72q-0.03-1.37-0.06-2.78-0.01-1.43-0.02-2.91c-0.12-7.18-0.72-14.26-1.57-21.39-0.7-5.84-0.91-11.56-0.72-17.45z"/>
		<path class="s9" d="m513 259c22.03-0.98 43.21 1.88 64.03 9.3q3.24 1.14 6.49 2.22c9.53 3.28 18.35 7.21 27.07 12.28 4.78 2.69 7.91 3.73 13.41 3.2-0.37 2.59-0.64 3.71-2.71 5.38q-1.03 0.58-2.1 1.18c-2.88 1.67-5.58 3.37-8.19 5.44q0-1.97 0-4c-15.37 6.21-34.94 14.53-43 30-0.84 2.66-1.43 5.26-2 8-1.55-2.32-2.8-4.51-4-7-11.08 10.05-17.38 21.12-19 36q-0.49 0-1 0c-0.66-3.3-1.32-6.6-2-10-7.24 14.34-9.36 26-9 42q-2.46 0.49-5 1c0-2.31 0-4.62 0-7-3.96 0-7.92 0-12 0 2.07-5.16 3.52-6.62 7.56-10.19 3.67-3.41 6.12-5.99 6.44-11.19q-0.02-1.2-0.04-2.45c0.05-3 1.25-4.83 3.04-7.17-2.48 0.99-2.48 0.99-5 2q-1.03-5.99-2-12-0.18-1.08-0.36-2.19c-2.07-12.9-3.53-25.79-4.64-38.81 6.57 0.45 12.52 1.43 18.75 3.56q1.14 0.39 2.32 0.78c6.56 2.31 12.32 5.45 18.21 9.12 2.63 1.79 2.63 1.79 5.72 1.54-6.35-4.56-12.78-8.02-20-11q-1.31-0.56-2.65-1.13c-7.3-2.9-14.57-4.01-22.35-4.87-0.33-2.31-0.66-4.62-1-7 18.97 0.4 36.44 8.62 52 19-3.84-4.23-7.76-6.87-12.81-9.5q-1.11-0.58-2.26-1.18c-11.82-5.97-23.79-8.94-36.93-10.32-0.33-2.31-0.66-4.62-1-7 22.57-0.45 42.85 9.19 61 22-1.12-3.36-1.57-3.66-4.44-5.45q-1.07-0.68-2.18-1.37c-18.27-10.98-34.12-15.61-55.38-18.18-1.46-5.87-2.35-11.52-2.62-17.56q-0.06-1.08-0.12-2.19-0.14-2.63-0.26-5.25z"/>
		<path class="s10" d="m232 669c-0.42 6.8-0.92 13.55-1.79 20.31-0.97 7.77-1.47 15.48-1.58 23.32q-0.04 1.36-0.08 2.76c-0.02 6 0.97 10.62 4.45 15.61 6.43 5.07 13.53 5.29 21.38 5.19 1.36 0 1.36 0 2.75 0 4.01-0.03 7.95-0.14 11.93-0.69 4.55-0.58 8.99-0.72 13.57-0.75q1.22-0.03 2.48-0.06c5.07-0.04 8.49 0.52 12.89 3.31 2 2 2 2 2.44 5.38-0.44 3.62-0.44 3.62-2.36 5.72-4.16 2.57-8.05 3.15-12.83 3.9q-1.44 0.24-2.91 0.5-7.79 1.29-15.61 2.43c-27.77 4.14-55.1 11.73-77.87 28.82-1.86 1.25-1.86 1.25-3.86 1.25 1.67-7.83 3.64-15.57 5.69-23.31q0.26-0.98 0.52-1.99c2.72-10.24 5.86-20.25 9.54-30.18 1.36-3.21 1.36-3.21 1.25-5.52-2.11-1.63-4.21-3.11-6.44-4.56q-0.99-0.66-2.01-1.33c-8.96-5.81-18.52-11.36-28.55-15.11 1.51-4.23 4.57-6.15 8.19-8.5q0.97-0.64 1.98-1.29c39.55-25.21 39.55-25.21 56.83-25.21z"/>
		<path class="s11" d="m513 273c2.4 2.4 2.34 3.33 2.63 6.63 0.11 1.22 0.11 1.22 0.22 2.47q0.07 0.94 0.15 1.9 1.69-0.09 3.44-0.19c18.5 0.15 35.08 6.93 50.69 16.44q1.01 0.61 2.06 1.25c4.64 2.97 4.64 2.97 5.49 5.64q0.16 0.92 0.32 1.86c-3.66-1.34-6.66-3-9.87-5.19-16.1-10.4-32.37-14.26-51.13-16.81 0.5 3.46 0.5 3.46 1 7q1.2 0 2.43 0.01c17.18 0.58 36.65 7.31 49.57 18.99q0 0.99 0 2c-4.08-1.48-7.55-3.49-11.25-5.75-12.71-7.45-26.29-11.03-40.75-13.25 0.5 3.46 0.5 3.46 1 7 1.83-0.12 1.83-0.12 3.69-0.25 13.47 0.02 29.54 7.4 40.31 15.25q0.99 1.48 2 3c-4.74 0-6.17-1.13-10.12-3.63-10.94-6.58-23.32-10.34-35.88-12.37q0.19 0.88 0.38 1.79c1.37 6.52 2.33 13.03 3.12 19.65q0.19 1.54 0.38 3.13c1.15 9.46 2.17 18.94 3.12 28.43q2.46-0.99 5-2-0.46 0.92-0.94 1.88c-1.18 2.91-1.18 2.91-1.03 5.29 0.06 4.66-0.4 7.06-3.43 10.75-1.92 1.93-3.9 3.72-5.94 5.54-3.05 2.68-3.05 2.68-5.66 7.54 3.96 0 7.92 0 12 0 0 6 0 6-1 8-3.44-1.53-6.12-3.6-9-6 0.58 0.76 0.58 0.76 1.16 1.54 3.95 5.64 3.95 5.64 3.4 9.59-1.69 3.12-3.4 6.04-5.56 8.87q-0.99 0-2 0c-0.5-10.39-0.5-10.39-1-21q-2.12 2.09-4.31 4.25c-1.2 1.18-1.2 1.18-2.43 2.39q-1.11 1.16-2.26 2.36-0.88 0.88-1.78 1.78c-1.85 3.37-1.54 6.74-1.41 10.47q0.02 1.11 0.04 2.26 0.06 2.74 0.15 5.49-0.99-0.49-2-1 0-1.48 0-3c-0.84 0.74-0.84 0.74-1.69 1.5-2.69 1.75-4.16 1.76-7.31 1.5-0.75-1.7-0.75-1.7-1-4 1.65-2.36 1.65-2.36 3.94-4.75 1.12-1.2 1.12-1.2 2.27-2.42q0.88-0.9 1.79-1.83c-2.31-0.66-4.62-1.32-7-2q-0.34 0.83-0.69 1.69c-1.67 2.94-3.86 4.99-6.31 7.31q-1.48-0.49-3-1c2.31-2.64 4.62-5.28 7-8-11.57-2.18-23.18-3.93-34.85-5.47-20.4-2.78-20.4-2.78-24.15-6.53 2.86-2.86 5.69-2.3 9.52-2.3q1.16-0.02 2.35-0.03 3.86-0.03 7.72-0.05 2.68-0.02 5.35-0.05 7.05-0.07 14.11-0.11 11.28-0.08 22.57-0.19 3.95-0.03 7.89-0.06 2.42-0.02 4.84-0.04c1.1 0 1.1 0 2.22 0 3.08-0.04 5.48-0.19 8.43-1.17 0.33-36.96 0.66-73.92 1-112z"/>
		<path class="s12" d="m453 330c4.25 3.34 7.5 6.63 10.75 11q1.3 1.73 2.6 3.46 0.65 0.87 1.32 1.77 2.59 3.43 5.24 6.82c13.09 16.84 13.09 16.84 13.09 19.95q-8.88 1.3-17.77 2.56-3.01 0.44-6.03 0.88-4.36 0.63-8.72 1.25c-1.33 0.19-1.33 0.19-2.68 0.4-6.3 0.87-12.44 1.05-18.8 0.91 0.06-19.46 8.01-34.71 21-49z"/>
		<path class="s9" d="m505 306c-0.54 11.45-2.21 22.58-4.06 33.88q-0.43 2.65-0.86 5.3-1.03 6.41-2.08 12.82c-4.09-0.85-6.73-2.86-9.94-5.44q-1.74-1.37-3.49-2.74-0.88-0.7-1.79-1.42-3.37-2.64-6.78-5.22c-6.45-4.92-12.76-10-19-15.18 1.33-4 3.93-5.48 7.25-7.81q0.94-0.66 1.9-1.34c11.65-8.01 24.56-13.55 38.85-12.85z"/>
		<path class="s13" d="m652 292q-1.13 0.53-2.3 1.08-4.32 2.04-8.63 4.09-1.85 0.88-3.7 1.75c-8.19 3.84-15.88 8.01-23.37 13.08q-0.99 0.66-2 1.34c-7.87 5.35-15.07 11.14-22 17.66q-1.59 1.44-3.19 2.88c-10.26 9.27-19.13 19.36-27.81 30.12q-0.98 1.18-1.99 2.39c-4.04 4.9-7.72 9.97-11.26 15.23q-0.62 0.91-1.25 1.85c-2.47 3.73-4.58 7.52-6.53 11.54q-1.42 2.89-2.97 5.71c-3.68 6.91-6.35 13.05-7.75 20.78-0.82 4.22-1.7 6.97-4.91 10.04q-3.11 2-6.35 3.78c-4.47 2.51-8.67 6.03-10.99 10.68q-0.99-0.49-2-1c0.49-0.92 0.49-0.92 1-1.85 1.18-3.72 1.11-6.83 1.07-10.7-0.04-12.02-0.04-12.02 2.71-16.07 2.28-1.63 2.28-1.63 4.75-3 7.63-4.26 15.73-15.15 18.47-23.38q2.49-2.51 5-5 2.06-2.86 4-5.81c3.59-5.33 7.44-10.39 11.5-15.38q0.76-0.94 1.54-1.9c13.69-16.67 28.97-33.83 46.96-45.91q1.03-0.7 2.09-1.42c38.95-26.23 38.95-26.23 49.91-22.58z"/>
		<path class="s14" d="m786 713c2.69 2.31 2.69 2.31 4 5 0.12 3.49 0.03 5.81-2.31 8.52-4.29 3.72-7.58 4.61-13.1 4.61q-1.6 0-3.25 0.01-1.68-0.01-3.4-0.01-1.64 0-3.32 0.01c-5.83-0.01-11.54-0.25-17.33-0.9-3.52-0.37-7-0.49-10.54-0.55q-1-0.05-2.02-0.09c-5.08-0.07-7.77 1.34-11.73 4.4q-0.99 0.49-2 1-0.08-3.31-0.13-6.63-0.03-1.83-0.07-3.72c0.2-3.65 0.47-7.92 3.2-10.65q2.54-0.53 5.1-0.94 1.57-0.26 3.18-0.52 1.65-0.27 3.34-0.54 1.62-0.27 3.28-0.54 4.55-0.74 9.1-1.46 1.79-0.3 3.63-0.61c10.85-1.27 24.93-2.81 34.37 3.61z"/>
		<path class="s15" d="m254.76 708.73q1.1 0 2.23 0.01c7.64 0.14 15.12 1.1 22.65 2.29q3.42 0.53 6.84 1.02c11.09 1.67 11.09 1.67 14.52 3.95 2.07 6.47 2.22 13.27 2 20q-0.68-0.52-1.39-1.06-0.92-0.68-1.86-1.38-0.9-0.67-1.83-1.37c-3.17-1.97-6.25-2.32-9.93-2.32q-1.13 0-2.3-0.01c-1.18 0.01-1.18 0.01-2.38 0.01q-1.14 0-2.32-0.01c-3.84 0.01-7.59 0.16-11.41 0.63-5.07 0.61-10.1 0.77-15.2 0.82-1.36 0.05-1.36 0.05-2.74 0.09-7.08 0.07-11.3-1.37-16.64-6.21-1.58-3.46-1.07-5.59 0-9.19 5.75-6.02 11.67-7.36 19.76-7.27z"/>
		<path class="s16" d="m441 665c6.37-0.13 12.39 0.27 18.69 1.25 1.22 0.16 1.22 0.16 2.47 0.33 5.16 0.8 8.7 2.03 12.84 5.42 2.7 4.04 2.78 7.25 2 12-1.33 2.87-2.48 3.85-5 6-3.81 0.88-3.81 0.88-7 1 5.95 14.26 5.95 14.26 17 24q0 0.99 0 2c-4.23 0.33-7.92 0.24-12-1-3.23-3.38-5-7.28-6.94-11.5q-1.55-3.21-3.15-6.41-0.66-1.42-1.34-2.88c-1.62-2.81-1.62-2.81-6.57-3.21 0 6.27 0 12.54 0 19q1.97 0.99 4 2-0.49 0.99-1 2-3.34-0.21-6.69-0.44-1.85-0.12-3.76-0.24c-2.93-0.26-5.68-0.67-8.55-1.32q0-0.99 0-2c2.48-0.5 2.48-0.5 5-1 2.04-7.13 2.85-14.26 3.63-21.63 0.2-1.8 0.2-1.8 0.4-3.64 0.96-7.85 0.96-7.85 0.97-15.73-2.41-1.86-2.41-1.86-5-3q0-0.49 0-1z"/>
		<path class="s17" d="m325 642q2.94 0.46 5.88 0.94 1.62 0.26 3.3 0.52c2.82 0.54 2.82 0.54 4.82 1.54 0.69 2.96 0.69 2.96 1.29 6.89q0.16 1.03 0.33 2.1 0.34 2.21 0.67 4.43 0.5 3.36 1.03 6.73c1.83 11.94 1.83 11.94 1.68 17.85q0.99 0 2 0 0.37-0.82 0.75-1.66c1.51-2.82 3.32-5.23 5.25-7.78q1.19-1.56 2.41-3.17 1.29-1.7 2.59-3.39 0.68-0.89 1.38-1.81c8.34-10.91 8.34-10.91 9.62-12.19q3 0.07 6 0.31c1.64 0.12 1.64 0.12 3.31 0.24q1.33 0.22 2.69 0.45c0.5 0.99 0.5 0.99 1 2-1.16 0.24-1.16 0.24-2.34 0.49-3.03 1.36-3.03 1.36-4.14 5.12q-0.6 2.28-1.14 4.58-0.31 1.2-0.62 2.43-0.92 3.68-1.76 7.38c-0.25 1.09-0.25 1.09-0.51 2.2-1.5 6.63-2.91 12.97-2.49 19.8q0.99 1.48 2 3c-6.08-0.68-12.01-1.74-18-3q0-0.99 0-2 1.41-0.32 2.87-0.64c3.31-1.05 3.31-1.05 4.45-3.91q0.39-1.57 0.8-3.19 0.44-1.72 0.9-3.48 0.42-1.8 0.86-3.66 0.45-1.78 0.92-3.62c1.68-6.67 1.68-6.67 2.2-13.5q-2.94 3.59-5.88 7.19-0.87 1.07-1.77 2.17c-2.84 3.49-5.64 6.99-8.33 10.6-0.68 0.9-0.68 0.9-1.36 1.81q-1.83 2.47-3.64 4.95-0.99 1.12-2.02 2.28-1.48 0-3 0-0.26-1.45-0.53-2.95-0.99-5.44-1.98-10.87-0.43-2.35-0.85-4.7-0.61-3.39-1.23-6.77-0.19-1.04-0.38-2.11-0.96-5.31-2.03-10.6c-4.82 16.81-4.82 16.81-7 34q1.97 0.49 4 1 0 0.99 0 2c-5.42-0.69-10.68-1.76-16-3q0-0.99 0-2 1.4-0.3 2.84-0.62c3.34-1.08 3.34-1.08 4.63-4.01q0.51-1.72 1.03-3.5 0.29-0.94 0.58-1.92c3.01-10.2 5.44-20.6 7.92-30.95q-0.95-0.43-1.94-0.88c-2.06-1.12-2.06-1.12-3.06-3.12z"/>
		<path class="s18" d="m502.31 286.94c1.33 0.01 1.33 0.01 2.68 0.02 0.99 0.02 0.99 0.02 2.01 0.04 0 2.31 0 4.62 0 7-1.81 0.24-1.81 0.24-3.66 0.48-20.51 2.85-37.7 9.64-53.34 23.52q-1 0.88-2.04 1.79c-17.13 16.04-25.94 38.13-27.96 61.21-1 1-1 1-4.06 1.06q-1.45-0.03-2.94-0.06c-1.19-22.2 8.4-43.81 22.66-60.41 16.42-18.18 41.02-34.99 66.65-34.65z"/>
		<path class="s19" d="m660 303c6.25 2.48 10 8.84 14 14q0.7 0.9 1.42 1.83c20.37 26.46 32.05 56.78 37.39 89.48q0.19 1.13 0.38 2.3c0.73 4.85 0.92 9.49 0.81 14.39-2.09-3.54-2.57-6.9-3.19-10.94-6.57-37.7-28.29-72.6-56.33-98.12-1.48-1.94-1.48-1.94-1.41-3.96 1.06-2.27 2.31-3.87 3.99-5.73q0.82-0.92 1.66-1.86 0.63-0.68 1.28-1.39z"/>
		<path class="s20" d="m325 431q0.99 0 2 0c-0.64 3.83-1.76 7.13-3.27 10.71q-0.7 1.68-1.42 3.41-0.38 0.9-0.77 1.82-2.06 4.88-4.09 9.78c-0.43 1.02-0.43 1.02-0.86 2.06-3.06 7.33-6.05 14.68-9.03 22.03q-0.81 2.01-1.63 4.02-3.72 9.17-7.42 18.34-2.07 5.1-4.14 10.2-0.4 1-0.81 2.02-5.62 13.86-11.5 27.61c-7.35 14.57-7.35 14.57-11.06 30 8.55 2.33 17.03 3.9 25.81 5.06q1.87 0.26 3.79 0.52c11.43 1.5 22.89 2.58 34.4 3.42q0 0.49 0 1-2.95 0-6 0 0 0.98 0 2c-2.46 1.23-4.12 1.17-6.87 1.19q-1.29 0.02-2.62 0.04c-4.15-0.27-8.15-0.98-12.25-1.69-5.37-0.89-10.78-1.49-16.2-2.1q-1.6-0.19-3.26-0.38-10.09-1.15-20.22-1.79c-2.58-0.27-2.58-0.27-4.58-1.27 0.53-4.85 1.54-8.8 3.52-13.26q0.78-1.77 1.58-3.6 0.86-1.91 1.71-3.83 0.89-2.01 1.77-4.01 1.82-4.14 3.64-8.27c2.67-6.03 5.25-12.09 7.84-18.16q1.49-3.47 2.98-6.95 1.48-3.46 2.96-6.92 2.97-6.94 5.94-13.88 0.73-1.7 1.48-3.47 3.93-9.16 7.91-18.31 1.68-3.86 3.36-7.71 0.4-0.94 0.82-1.9 6.11-14 11.78-28.17 0.49-1.24 1-2.51 0.43-1.07 0.86-2.17c0.85-1.88 0.85-1.88 2.85-4.88z"/>
		<path class="s21" d="m644 656c0.5 0.99 0.5 0.99 1 2q-1.48 0-3 0c-1.73 8.06-0.02 15.7 1.38 23.69q0.35 2.12 0.71 4.24c0.9 5.37 1.82 10.74 2.91 16.07q2.96 0 6 0 0 0.99 0 2c-9.4 0.99-9.4 0.99-19 2q1.48-1.48 3-3c0.4-3.26 0.4-3.26 0.25-6.88q-0.02-1.81-0.05-3.67c-0.17-2.93-0.53-5.6-1.2-8.45q-2.41 0.21-4.81 0.44c-1.34 0.12-1.34 0.12-2.71 0.24-2.61 0.25-2.61 0.25-5.48 1.32q-2.34 0.1-4.69 0.06c-1.21-0.01-1.21-0.01-2.45-0.02q-0.91-0.02-1.86-0.04 0.67 4.44 1.38 8.87 0.18 1.26 0.38 2.56 0.19 1.2 0.39 2.44 0.17 1.11 0.35 2.25c0.39 2.11 0.39 2.11 2.5 3.88 2.57 0.65 2.57 0.65 5 1q0 0.99 0 2-3.31 0.51-6.62 1-1.84 0.28-3.73 0.56c-3.27 0.39-6.37 0.52-9.65 0.44q0.99-0.74 2-1.5c2.76-3.46 2.33-6.31 1.94-10.5q-0.09-1.16-0.18-2.36c-0.52-6.21-1.28-12.4-2.13-18.58q-0.17-1.28-0.35-2.6-0.18-1.19-0.37-2.42-0.15-1.06-0.31-2.15c-1-3.16-2.94-4.53-5.79-6.08q-0.89-0.4-1.81-0.81c1.83-1.83 4.71-1.68 7.19-2.06q1.68-0.27 3.42-0.54c3.17-0.37 6.2-0.47 9.39-0.4q0 0.99 0 2-1.97 0-4 0c-1.19 6.88-0.71 13.05 0 20 10.89-1.49 10.89-1.49 22-3-0.31-2.41-0.62-4.83-0.94-7.31q-0.14-1.13-0.29-2.29c-0.38-2.93-0.83-5.59-1.77-8.4q-2.96-0.49-6-1 0-0.99 0-2c5.94-0.99 11.88-1.98 18-3z"/>
		<path class="s22" d="m608 350c4.99 4.18 5.47 11.34 6.69 17.44 0.45 5.19 0.39 10.36 0.31 15.56 1.1 0.09 1.1 0.09 2.23 0.18q1.46 0.13 2.96 0.26 1.43 0.12 2.92 0.24c2.68 0.3 5.26 0.75 7.89 1.32-4.42 2.94-8.78 3.14-14 4-0.66 3.96-1.32 7.92-2 12q-1.48 0-3 0c0-3.63 0-7.26 0-11q-2.96 0-6 0c-0.66 3.96-1.32 7.92-2 12q-0.49 0-1 0c0-3.3 0-6.6 0-10-2.97-0.5-2.97-0.5-6-1-0.5 4.95-0.5 4.95-1 10-1.98 0.5-1.98 0.5-4 1 0.66-3.3 1.32-6.6 2-10q-2.4 0.5-4.87 1.02c-31.29 6.48-31.29 6.48-47.13 5.98q0-0.99 0-2 1.14-0.33 2.32-0.66c6.44-1.91 12.7-4.03 18.93-6.53q0.98-0.39 1.99-0.79c3.11-1.13 3.11-1.13 5.76-3.02q2.03-0.17 4.06-0.21 1.29-0.03 2.61-0.06c1.4-0.02 1.4-0.02 2.83-0.05q1.43-0.03 2.89-0.06 4.59-0.1 9.17-0.18 3.1-0.07 6.2-0.13 7.62-0.16 15.24-0.31-5.01-0.73-10.01-1.46-1.4-0.2-2.84-0.41c-7.04-1.02-14.04-1.75-21.15-2.13q0-0.99 0-2c4.62 0 9.24 0 14 0q-0.49-2.46-1-5c-0.12-2.68-0.05-5.32 0-8q1.48 0.49 3 1c0.5 6.44 0.5 6.44 1 13 2.31 0.33 4.62 0.66 7 1q-0.46-1.82-0.94-3.69c-1.36-6.04-1.7-12.14-2.06-18.31 2 1 2 1 3 3.69 1.58 5.98 2.2 12.19 3 18.31q2.46 0.49 5 1-0.43-4.5-0.87-9-0.12-1.25-0.24-2.54c-0.54-5.33-1.53-10.28-2.89-15.46-0.12-3-0.12-3 0-5z"/>
		<path class="s23" d="m701 445c2.26 2.26 2.87 3.9 4 6.88q0.6 1.56 1.22 3.16 0.66 1.74 1.34 3.52c4.65 12.06 9.53 24.01 14.5 35.94q2.18 5.24 4.36 10.48 0.55 1.32 1.12 2.68 6.08 14.64 12.08 29.31 1.18 2.87 2.36 5.74c11.02 26.83 11.02 26.83 11.02 31.29-18.49 3.25-36.86 6.46-55.6 7.81-4.82 0.39-9.62 0.99-14.42 1.58-4.7 0.56-9.25 0.68-13.98 0.61q0-0.49 0-1c1.09-0.16 1.09-0.16 2.21-0.32q10.41-1.52 20.82-3.04 5.35-0.79 10.7-1.57c20.36-2.91 20.36-2.91 40.58-6.58 2.69-0.49 2.69-0.49 5.69-0.49q-0.49-0.89-1-1.81c-1-2.19-1-2.19-1-5.19q-1.77 0.66-3.6 1.34c-6.47 2.15-13.12 3.17-19.84 4.29q-1.88 0.32-3.81 0.65c-9.83 1.66-19.41 2.91-29.37 2.78q-1.08 0-2.18-0.01-2.6-0.02-5.2-0.05 0-0.49 0-1 1.17-0.15 2.38-0.3c19.64-2.54 38.76-5.43 57.62-11.7-1.9-6.6-4.03-13.04-6.5-19.44q-0.51-1.33-1.04-2.7c-6.59-17.05-13.65-33.91-20.65-50.8-3.52-8.48-7.02-16.97-10.43-25.5q-0.48-1.18-0.97-2.4c-1.6-4.01-3.09-8.04-4.41-12.16q0.99 0 2 0 0-0.99 0-2z"/>
		<path class="s24" d="m411 659q1.48 0.49 3 1c0.82 2.51 1.43 4.87 1.97 7.44q0.25 1.12 0.51 2.28 0.81 3.64 1.58 7.28 0.53 2.41 1.07 4.82 1.45 6.58 2.87 13.18c1.1 5.1 2.23 10.08 4 15q0.99 0 2 0c-0.5 0.99-0.5 0.99-1 2-5.28-0.66-10.56-1.32-16-2q0-1.48 0-3c1.98-0.5 1.98-0.5 4-1q-0.21-2.41-0.44-4.81-0.12-1.34-0.24-2.71c-0.25-2.61-0.25-2.61-1.32-5.48-6.12-1.4-11.72-2.23-18-2-3.62 5.55-3.62 5.55-4 12q0.99 0.49 2 1 0 0.99 0 2-2.94-0.42-5.88-0.88c-1.63-0.24-1.63-0.24-3.3-0.49-2.82-0.63-2.82-0.63-4.82-2.63q1.12-0.59 2.27-1.2c2.94-1.94 4.41-3.67 6.42-6.54q1.02-1.46 2.08-2.96 6.2-9.19 12.23-18.49 1.32-2.02 2.64-4.04 3.18-4.88 6.36-9.77z"/>
		<path class="s25" d="m674 649q1.48 0 3 0c1.95 2.44 3.7 4.85 5.44 7.44q1.61 2.33 3.22 4.67c0.82 1.21 0.82 1.21 1.66 2.44q4.02 5.85 8.12 11.64 0.72 1.03 1.46 2.1c4.7 7.5 4.7 7.5 11.41 12.58q0.83 0.07 1.69 0.13 0 0.99 0 2-3.66 0.75-7.31 1.5-1.03 0.21-2.09 0.43c-2.93 0.6-5.61 1.07-8.6 1.07q0-0.99 0-2 0.99-0.49 2-1c-0.48-5-2.03-7.98-5-12-5.85 0.51-11.33 1.45-17 3-1.45 4.54-2.24 8.18-2 13q2.46 0.49 5 1 0 0.99 0 2-3.19 0.75-6.38 1.5-1.76 0.42-3.58 0.84c-3.04 0.66-3.04 0.66-5.04 0.66q0-0.99 0-2c1.49-0.5 1.49-0.5 3-1 2.47-4.51 3.02-9.82 3.91-14.82q0.26-1.41 0.52-2.86 0.82-4.5 1.63-9.01 0.82-4.52 1.64-9.04 0.52-2.81 1.02-5.62 0.23-1.26 0.46-2.56 0.2-1.11 0.41-2.25c0.41-1.84 0.41-1.84 1.41-3.84z"/>
		<path class="s26" d="m320 448q1.48 0.49 3 1c-2.3 7.29-5.09 14.33-8 21.4q-2.18 5.32-4.35 10.64-0.45 1.1-0.91 2.24c-4.98 12.19-9.87 24.41-14.77 36.63q-1.75 4.35-3.5 8.7-2.17 5.38-4.32 10.77-0.81 2.02-1.63 4.03-1.12 2.78-2.23 5.56c-0.63 1.57-0.63 1.57-1.27 3.18-0.94 2.62-1.56 5.11-2.02 7.85 19.15 7.08 38.79 9.73 59 12q0 0.49 0 1c-14.69 0.54-29.25-1.37-43.69-3.94q-1.33-0.23-2.71-0.48c-5.74-1.07-11.1-2.62-16.6-4.58-0.66 2.64-1.32 5.28-2 8q0.88 0.08 1.79 0.16c6.58 0.6 13.06 1.56 19.58 2.65 12.73 2.08 25.48 3.92 38.25 5.71q8.69 1.23 17.38 2.48 0 0.49 0 1c-6.88 0.29-13.34-0.41-20.13-1.48-3.59-0.48-7.11-0.75-10.73-0.93-7.88-0.5-15.62-1.51-23.41-2.69q-3.38-0.51-6.76-1-2.19-0.32-4.38-0.65c-1.93-0.29-1.93-0.29-3.91-0.58-3.73-0.68-7.11-1.39-10.68-2.67-1.39-4.16 0.22-6.81 1.81-10.69 0.48-1.19 0.48-1.19 0.96-2.4 2.97-7.38 6.05-14.72 9.12-22.06q5.26-12.58 10.36-25.23 7.88-19.45 15.91-38.84 5.51-13.35 10.84-26.78z"/>
		<path class="s27" d="m512 668q1.48 0.49 3 1c1.29 2.63 2.38 5.19 3.43 7.91 0.48 1.2 0.48 1.2 0.97 2.43q1.53 3.85 3.04 7.72 1.51 3.83 3.02 7.65 0.95 2.38 1.88 4.77c1.46 3.72 3 7.39 4.7 11.01q0.45 0.97 0.92 1.97c1.04 1.88 1.04 1.88 4.04 2.54q0 0.99 0 2c-5.94 0-11.88 0-18 0q0-0.99 0-2c1.49-0.5 1.49-0.5 3-1q-0.21-2.09-0.44-4.19-0.12-1.16-0.24-2.35c-0.33-2.51-0.82-4.98-1.32-7.46-6.27 0-12.54 0-19 0-1.83 7.11-1.83 7.11-2 14q1.48 0.49 3 1 0 0.99 0 2c-6.93-0.5-6.93-0.5-14-1q1.1-1.18 2.23-2.41c3.3-3.97 5.16-8.38 7.16-13.11q0.58-1.34 1.18-2.72 1.85-4.28 3.68-8.57 1.86-4.31 3.72-8.62 1.16-2.68 2.3-5.36 0.51-1.2 1.04-2.43 0.45-1.05 0.92-2.14c0.77-1.64 0.77-1.64 1.77-2.64z"/>
		<path class="s28" d="m582 665q0.99 0 2 0c0.5 7.92 0.5 7.92 1 16q-1.48-1.97-3-4c-2.25-2.96-3.88-4.92-7-7-5.41-0.67-10.4-0.63-15.5 1.38-5.27 5.53-6.74 11.72-7 19.25 0.23 6.45 1.45 11.26 6.03 15.93 3.83 3.31 6.23 4.59 11.22 4.63q1.25 0.02 2.55 0.04c3.32-0.18 3.32-0.18 8.7-2.23-0.33-5.61-0.66-11.22-1-17-2.48-0.99-2.48-0.99-5-2q0-0.99 0-2c3.61-1.13 6.98-1.1 10.75-1.06 1.76 0.01 1.76 0.01 3.55 0.02q1.33 0.02 2.7 0.04 0 0.99 0 2-1.48 0.49-3 1c0 0.83 0 0.83 0 1.68q-0.03 3.79-0.13 7.57c0.01 1.31 0.01 1.31 0.01 2.64-0.07 2.5-0.23 4.7-0.88 7.11-2.74 2.48-2.74 2.48-6 4q-1.24 0.59-2.51 1.2c-7.09 2.27-15.58 2.9-22.49-0.2-5.83-3.13-9.46-7.11-12.16-13.15-2.1-7.11-1.97-15.26 1.12-22.08 3.69-6.3 8.06-10.4 15.04-12.77 3.5-0.42 6.92-0.34 10.44-0.19q2.68 0.08 5.37 0.15 1.17 0.04 2.37 0.09c1.84 0.16 1.84 0.16 2.82-1.05z"/>
		<path class="s29" d="m349 416q-0.99 1.48-2 3 0-0.99 0-2c-1.95 0.11-1.95 0.11-4 1-1.31 2.23-1.31 2.23-2.2 5.11q-0.59 1.68-1.2 3.4-0.31 0.92-0.63 1.86c-1.16 3.43-2.38 6.84-3.6 10.24-0.39 1.12-0.39 1.12-0.8 2.26-3.03 8.52-6.33 16.95-9.62 25.37-10.71 27.44-20.92 55.07-30.95 82.76q3.59 0.91 7.19 1.81 0.97 0.25 1.98 0.5 3.41 0.86 6.83 1.69 1.43 0.36 2.9 0.73c8.57 2.09 17.17 3.36 25.91 4.46q2.08 0.27 4.16 0.53 5.01 0.65 10.03 1.28 0 0.49 0 1-6.59 0.08-13.19 0.12-1.83 0.03-3.71 0.06c-8.24 0.04-16.01-0.65-24.1-2.18q-1.29-0.24-2.62-0.49-3.45-0.68-6.88-1.45c-1.14-0.23-1.14-0.23-2.3-0.47-4.25-0.94-7.57-2.06-11.2-4.59 1.3-6.53 3.15-12.52 5.57-18.72q0.53-1.37 1.07-2.78 1.74-4.5 3.48-9 1.22-3.15 2.44-6.31 8.87-22.96 17.86-45.87 6.08-15.54 12.02-31.13 0.68-1.78 1.38-3.62c0.61-1.62 0.61-1.62 1.24-3.28q0.53-1.39 1.07-2.82c0.76-2.15 1.37-4.25 1.87-6.47-0.87 0.99-0.87 0.99-1.75 2-2.25 2-2.25 2-6.25 2 1.25-3.65 1.67-4.78 5-7 2.69-0.13 2.69-0.13 5 0q0.49-1.48 1-3c6.75-1.13 6.75-1.13 9 0z"/>
		<path class="s30" d="m510 283q0.99 0 2 0c0 33 0 66 0 100-3.63-1.81-5.84-3.39-8.75-6.13q-1.19-1.08-2.42-2.19c-4.12-6.04-1.33-14.53-0.14-21.3 1.88-11.25 3.46-22.52 4.93-33.82q0.16-1.17 0.32-2.39 2.23-17.06 4.06-34.17z"/>
		<path class="s30" d="m500 374c2.1 1.79 3.94 3.51 5.81 5.5 0.76 0.77 0.76 0.77 1.52 1.55 3.67 3.78 3.67 3.78 3.67 4.95-34.32 0-68.64 0-104 0q0-0.49 0-1 8.19-1.16 16.38-2.31 1.21-0.17 2.45-0.35c11.81-1.65 23.63-3.17 35.49-4.44q1.46-0.16 2.97-0.32 1.26-0.13 2.55-0.27c2.34-0.27 2.34-0.27 5.16-1.31 3.74-0.57 7.5-1.04 11.25-1.52q3.18-0.4 6.34-0.87c3.8-0.56 6.75-0.8 10.41 0.39z"/>
		<path class="s31" d="m696 432c2.87 1.02 3.88 1.79 5.44 4.45q0.66 1.56 1.35 3.16 0.77 1.8 1.57 3.66 0.85 2.02 1.7 4.04 0.91 2.12 1.82 4.23 2.53 5.92 5.02 11.85 1.71 4.07 3.43 8.13 4.93 11.64 9.83 23.29c4.63 11.01 9.33 21.97 14.18 32.88 4.35 9.82 8.49 19.73 12.57 29.66q1.52 3.68 3.05 7.35 0.83 2.02 1.66 4.05 0.7 1.69 1.42 3.42c0.96 2.83 0.96 2.83 0.96 6.83-3.96 0.33-7.92 0.66-12 1-1-4-1-4 0-6q2.46 0 5 0c-4.55-12.67-9.44-25.16-14.62-37.58q-3.13-7.51-6.24-15.03c-0.64-1.54-0.64-1.54-1.29-3.11q-6.72-16.21-13.35-32.47-0.56-1.37-1.13-2.77-2.19-5.34-4.37-10.68-2.83-6.95-5.67-13.89-1.2-2.91-2.39-5.83-1.38-3.38-2.77-6.75c-1.87-4.59-3.69-9.15-5.17-13.89z"/>
		<path class="s32" d="m528 395q1.97 0 4 0 0 0.99 0 2 1.48 0.49 3 1c-0.6 4.01-1.91 6.91-3.88 10.44-2.47 4.68-3.55 8.57-4.25 13.81-0.77 4.27-1.26 6.19-4.47 9.17q-3.13 2.01-6.37 3.83c-4.46 2.57-8.69 6.08-11.03 10.75q-0.99-0.49-2-1 0.49-0.91 1-1.85c1.18-3.72 1.11-6.83 1.07-10.7-0.04-12.02-0.04-12.02 2.71-16.07 2.28-1.63 2.28-1.63 4.74-2.99 6.46-3.61 10.91-10.52 14.28-16.96q0.59-0.7 1.2-1.43z"/>
		<path class="s33" d="m407 565c30.72-0.91 60.3 3.2 85.81 21.7 2.76 1.99 5.06 3.1 8.19 4.3 0.5 0.99 0.5 0.99 1 2-1.98-0.66-3.96-1.32-6-2q0.77 1.14 1.56 2.31 0.71 1.33 1.44 2.69-0.49 1.48-1 3c-1.49 0.5-1.49 0.5-3 1q0.49 0.99 1 2c-3-1-3-1-4.3-2.33-20.42-20.05-60.69-22.77-87.64-23.29q-2.5-0.06-5-0.12-6.03-0.14-12.06-0.26 0-0.49 0-1c36.34-3.64 72.49 0.62 105 18 0.5-0.5 0.5-0.5 1-1-26.32-17.88-54.42-24.59-86-26q0-0.49 0-1z"/>
		<path class="s34" d="m511 279c2.07 3.11 2.25 3.75 2.24 7.27q0 1.3 0.01 2.64c-0.01 1.43-0.01 1.43-0.02 2.89q0 1.5 0 3.04-0.01 4.99-0.03 9.98-0.01 3.46-0.01 6.92-0.02 9.11-0.05 18.21-0.03 9.29-0.04 18.58-0.04 18.24-0.1 36.47-1.48 0-3 0-1.72-1.97-3.36-4.01c-2.27-2.76-4.51-5.21-7.64-6.99-5.64-0.46-10.52 0.74-16 2q-2.9 0.31-5.81 0.5c-3.4 0.29-6.66 0.76-10 1.44-5.78 1.1-11.59 1.69-17.44 2.25q-1.41 0.14-2.87 0.29c-5.19 0.47-9.76 0.52-14.88-0.48q0-0.49 0-1 1.4-0.17 2.84-0.34 5.3-0.62 10.6-1.26 2.28-0.27 4.56-0.54c8.19-0.97 16.35-1.99 24.47-3.48 3.88-0.58 7.62-0.51 11.53-0.38-4.51-7.47-4.51-7.47-9.81-14.37-2.19-2.63-2.19-2.63-2.98-4.84-1.68-3.87-4.19-6.84-6.83-10.1q-0.77-0.97-1.57-1.96-1.9-2.37-3.81-4.73 0.49-0.99 1-2c1.12 1.13 1.12 1.13 2.26 2.28q4.2 4.22 8.41 8.44 1.81 1.82 3.62 3.64c10.17 11.61 10.17 11.61 22.71 19.64q0.58 1.02 1.19 2.06c2.8 4.55 6.96 9.52 11.81 11.94-0.33-34.32-0.66-68.64-1-104z"/>
		<path class="s35" d="m511 443q0.99 0 2 0c0 49.5 0 99 0 150q-1.48 0.49-3 1-0.04-29.31-0.05-58.62-0.01-13.61-0.03-27.22-0.01-11.85-0.01-23.71-0.01-6.28-0.02-12.56-0.01-5.91 0-11.82 0-2.17-0.01-4.34-0.01-2.96 0-5.92 0-1.64 0-3.34c0.12-2.47 0.12-2.47 1.12-3.47z"/>
		<path class="s36" d="m448 322c3.02 3.38 3.02 3.38 2.95 5.91-1.3 2.86-3.1 5.03-5.08 7.46-9.61 12.41-15.79 27.08-16.69 42.84-0.18 1.79-0.18 1.79-1.18 2.79q-3 0.06-6 0c-1.11-18.46 7.72-37.99 19.44-51.89q3.22-3.61 6.56-7.11z"/>
		<path class="s37" d="m374.19 653.06c3.23 0.35 3.23 0.35 5.81 0.94q0.49 0.99 1 2c-1.16 0.24-1.16 0.24-2.34 0.49-3.03 1.36-3.03 1.36-4.14 5.12q-0.6 2.28-1.14 4.58-0.31 1.2-0.62 2.43-0.92 3.68-1.76 7.38-0.25 1.09-0.51 2.2c-1.5 6.63-2.91 12.97-2.49 19.8q0.99 1.48 2 3c-6.08-0.68-12.01-1.74-18-3q0-0.98 0-2 1.41-0.32 2.87-0.65c3.3-1.03 3.3-1.03 4.42-3.85q0.37-1.55 0.76-3.14 0.43-1.69 0.87-3.44 0.41-1.77 0.83-3.61 0.43-1.75 0.88-3.55 0.84-3.39 1.65-6.78 1.23-5.02 2.72-9.98-1.48 0-3 0c0-3 0-3 1.25-5.75 3.41-2.79 4.64-2.49 8.94-2.19z"/>
		<path class="s38" d="m506 297q0 2.95 0 6c-0.96 0.04-0.96 0.04-1.95 0.08-18.33 1.15-35.51 9.71-49.05 21.92-2.47-1.15-4.05-2.05-6-4 14.91-14.84 35.89-24.71 57-24z"/>
		<path class="s39" d="m677 660c1.77 2.26 3.23 4.37 4.69 6.81 0.6 0.97 0.6 0.97 1.22 1.95 1.68 2.71 3.08 5.21 4.09 8.24q0.99 0.99 2 2c-5.61 1.32-11.22 2.64-17 4-1.49 5.22-2.25 7.93-2 13q2.46 0.49 5 1 0 0.99 0 2-3.19 0.75-6.38 1.5-1.76 0.42-3.58 0.84c-3.04 0.66-3.04 0.66-5.04 0.66q0-0.99 0-2c1.49-0.5 1.49-0.5 3-1 2.09-3.98 2.71-8.28 3.44-12.67q0.38-2.23 0.77-4.45 0.6-3.49 1.19-6.98 0.57-3.38 1.16-6.76 0.17-1.05 0.35-2.12c0.3-1.69 0.69-3.36 1.09-5.02 2-1 2-1 6-1z"/>
		<path class="s40" d="m335 422q0.99 0 2 0c-0.56 6.36-2.63 11.76-4.97 17.66q-0.6 1.54-1.22 3.12-1.93 4.93-3.87 9.84-1.9 4.84-3.79 9.67-1.24 3.18-2.49 6.35c-3.96 10.09-7.82 20.22-11.66 30.36q-1.48-0.49-3-1c-1.49 0.5-1.49 0.5-3 1 2.63-8.44 6.04-16.53 9.44-24.69q1.88-4.54 3.76-9.08 0.48-1.14 0.96-2.32 3.22-7.81 6.32-15.67 0.41-1.03 0.83-2.09 1.95-4.93 3.87-9.86 0.69-1.74 1.39-3.53 0.6-1.52 1.21-3.09c1.17-2.56 2.34-4.58 4.22-6.67z"/>
		<path class="s41" d="m283.25 728.81q1.16-0.02 2.35-0.03c4.21-0.02 7.62 0.12 11.4 2.22 0.87 2.06 0.87 2.06 1 4-1 1-1 1-3.19 1.1q-1.42-0.02-2.88-0.04c-1.56-0.01-1.56-0.01-3.16-0.02q-3.29-0.04-6.58-0.08c-6.67-0.07-6.67-0.07-13.3 0.52-4.89 0.65-9.7 0.74-14.64 0.77q-1.39 0.03-2.82 0.06-1.35 0.01-2.73 0.02-1.2 0.01-2.45 0.03c-2.76-0.44-4.16-1.54-6.25-3.36 1.67-2.05 2.58-2.92 5.22-3.42q1.26-0.03 2.57-0.06c1.41-0.04 1.41-0.04 2.85-0.09q1.47-0.03 2.99-0.05 2.89-0.08 5.78-0.17 1.42-0.04 2.87-0.08c2.47-0.12 4.89-0.34 7.35-0.64 4.55-0.56 9.04-0.67 13.62-0.68z"/>
		<path class="s42" d="m299 524q1.48 0 3 0c-0.66 5.64-2.56 10.61-4.56 15.88q-0.49 1.31-1 2.66-1.21 3.23-2.44 6.46 3.59 0.91 7.19 1.81 0.97 0.25 1.98 0.5 3.41 0.86 6.83 1.69 1.43 0.36 2.9 0.73c8.57 2.09 17.17 3.36 25.91 4.46q2.08 0.27 4.16 0.53 5.01 0.65 10.03 1.28 0 0.49 0 1-6.59 0.08-13.19 0.12-1.83 0.03-3.71 0.06c-8.24 0.04-16.01-0.65-24.1-2.18q-1.29-0.24-2.62-0.49-3.45-0.68-6.88-1.45-1.13-0.23-2.3-0.47c-4.25-0.94-7.57-2.06-11.2-4.59 1.29-6.47 3.11-12.38 5.56-18.5q0.47-1.21 0.96-2.45c2.33-5.9 2.33-5.9 3.48-7.05z"/>
		<path class="s43" d="m408 670c2.72 2.72 2.77 5 3.5 8.75 0.89 4.56 1.94 8.87 3.5 13.25-2.64 1.32-3.78 0.74-6.63 0.06-4.59-0.99-8.68-1.23-13.37-1.06-3.62 5.55-3.62 5.55-4 12q0.99 0.49 2 1 0 0.99 0 2-2.94-0.42-5.88-0.88c-1.63-0.24-1.63-0.24-3.3-0.49-2.82-0.63-2.82-0.63-4.82-2.63q1.11-0.57 2.25-1.16c3.11-2.08 4.69-4.14 6.81-7.21 2.54-3.65 5.13-7.19 7.94-10.63q0.49 1.48 1 3c3.73-5.3 7.44-10.59 11-16z"/>
		<path class="s44" d="m510 680q0.99 0 2 0 1.55 3.65 3.06 7.31 0.44 1.03 0.9 2.09c2.15 5.26 2.15 5.26 1.04 8.6q0.99 0.99 2 2c-5.94 0-11.88 0-18 0-1.83 7.11-1.83 7.11-2 14q1.48 0.49 3 1 0 0.99 0 2c-6.93-0.5-6.93-0.5-14-1q1.09-1.15 2.22-2.33c4.19-5.02 6.08-11.28 8.39-17.32q0.54-1.37 1.11-2.77 0.47-1.24 0.97-2.52c1.7-2.68 3.36-3.06 6.31-4.06 1.22-1.68 1.22-1.68 1.81-3.62q0.59-1.67 1.19-3.38z"/>
		<path class="s45" d="m455 669c5.73 0.46 9.85 1.85 14 6 0.54 4.36 0.82 7.87-1.81 11.5-3.5 2.4-6.25 2.62-10.38 2.56-1.35-0.01-1.35-0.01-2.73-0.02q-1.02-0.02-2.08-0.04c0.78-13.63 0.78-13.63 3-20z"/>
		<path class="s46" d="m482 289q-0.49 1.48-1 3c-2.23 1-4.39 1.83-6.69 2.63-24.62 9.26-42.27 28.92-53.31 52.37q-1.48 0-3 0c0.49-5.05 2.22-8.55 5-12.69 0.6-0.91 0.6-0.91 1.22-1.84 3.89-5.81 8.14-11.24 12.78-16.47q1.11-1.26 2.26-2.55c9.92-10.54 27.56-24.45 42.74-24.45z"/>
		<path class="s47" d="m697 454c2.15 3.22 3.46 6.49 4.84 10.08 0.41 1.07 0.41 1.07 0.83 2.15q1.36 3.51 2.71 7.02 1.88 4.9 3.77 9.8 0.47 1.24 0.96 2.51 2.78 7.2 5.66 14.34 1.72 4.26 3.42 8.52 0.81 2.01 1.63 4.01 1.14 2.77 2.24 5.57 0.64 1.55 1.29 3.16c0.77 3.36 0.24 4.83-1.35 7.84-2.1-3.15-3.31-6.27-4.58-9.79q-0.78-2.12-1.56-4.25-0.41-1.11-0.83-2.26-8.18-22.42-17.07-44.56-0.39-1-0.81-2.03-1.08-2.71-2.16-5.41c-0.99-2.7-0.99-2.7-0.99-4.7q0.99 0 2 0 0-0.99 0-2z"/>
		<path class="s48" d="m608 350c5.11 4.38 5.73 11.45 6.41 17.84q0.37 5.07 0.59 10.16-0.49 0-1 0c-0.66 1.98-1.32 3.96-2 6q-1.82-0.2-3.7-0.4c-9.43-1.02-18.84-1.95-28.3-2.6q0-0.99 0-2c4.62 0 9.24 0 14 0q-0.49-2.46-1-5c-0.12-2.68-0.05-5.32 0-8q1.48 0.49 3 1c0.33 4.29 0.66 8.58 1 13 2.31 0.33 4.62 0.66 7 1q-0.46-1.82-0.94-3.69c-1.36-6.04-1.7-12.14-2.06-18.31 2 1 2 1 3 3.69 1.58 5.98 2.2 12.19 3 18.31q2.46 0.49 5 1-0.43-4.5-0.87-9-0.12-1.25-0.24-2.54c-0.54-5.33-1.53-10.28-2.89-15.46-0.12-3-0.12-3 0-5z"/>
		<path class="s49" d="m612.44 573.81q1.11 0 2.25 0c8.16 0 16.2 0.19 24.31 1.19q0 0.49 0 1-1.77 0.01-3.6 0.03c-28.37 0.26-53.64 1.46-80.48 11.39-1.92 0.58-1.92 0.58-4.92 0.58q-0.49-1.48-1-3c18.79-10.58 42.46-11.15 63.44-11.19z"/>
		<path class="s50" d="m463 689q0.49 2.46 1 5 0.99 0 2 0c1.94 3.02 3.7 6.1 5.46 9.23 2.71 4.69 5.53 9.27 10.54 11.77q0 0.99 0 2c-4.23 0.33-7.92 0.24-12-1-3.23-3.38-5-7.28-6.94-11.5q-1.55-3.21-3.15-6.41c-0.66-1.42-0.66-1.42-1.34-2.88-1.41-2.46-1.41-2.46-4.25-3.03q-1.14-0.09-2.32-0.18 0-0.49 0-1c7.63-2 7.63-2 11-2z"/>
		<path class="s51" d="m461 335c6.96 5.75 13.2 12.14 19.53 18.57 4.52 4.56 9.06 8.93 14.07 12.96 1.4 1.47 1.4 1.47 1.4 4.47-2.64 0.33-5.28 0.66-8 1q-0.78-1.05-1.58-2.13-6.41-8.62-13.05-17.06c-0.69-0.88-0.69-0.88-1.4-1.78q-3.1-3.94-6.22-7.85c-0.96-1.2-0.96-1.2-1.94-2.43q-0.82-1.02-1.67-2.08c-1.14-1.67-1.14-1.67-1.14-3.67z"/>
		<path class="s52" d="m634 406q-1.48 0.49-3 1-0.49 1.48-1 3c-8.47 1.59-16.65 2.19-25.25 2.19q-1.39 0-2.82 0c-6.66-0.05-6.66-0.05-8.93-1.19q0-0.99 0-2c-9.24 0.33-18.48 0.66-28 1q0-0.49 0-1c5.22-0.85 10.27-1.17 15.55-1.25q2.5-0.05 5-0.1 3.87-0.07 7.74-0.13c10.29-0.16 20.42-0.62 30.63-1.93 3.66-0.44 6.55-0.63 10.08 0.41z"/>
		<path class="s53" d="m416 386c30.69 0 61.38 0 93 0q0 0.49 0 1c-26.4 0.33-52.8 0.66-80 1q0 0.99 0 2 0.99 0.49 2 1c0.63 2.5 0.63 2.5 1.13 5.56q0.25 1.51 0.5 3.07 0.18 1.17 0.37 2.37-1.48-0.49-3-1c-0.73-2.07-0.73-2.07-1.19-4.56-0.24-1.24-0.24-1.24-0.48-2.51q-0.16-0.95-0.33-1.93c-2.97-0.5-2.97-0.5-6-1 0.33 3.63 0.66 7.26 1 11q-0.99-0.49-2-1c-0.63-2.29-0.63-2.29-1.13-5.06q-0.25-1.37-0.5-2.79-0.18-1.06-0.37-2.15c-2.97-0.5-2.97-0.5-6-1q-0.49 1.97-1 4 0-2.46 0-5c4.45-0.5 4.45-0.5 9-1q-2.46-0.49-5-1 0-0.49 0-1z"/>
		<path class="s54" d="m343 417q1.97 0 4 0c-1.55 8.16-4.28 15.78-7.13 23.56q-0.7 1.96-1.41 3.93-1.72 4.76-3.46 9.51-2.46-0.99-5-2c2.17-7.67 4.81-15.11 7.63-22.56 0.61-1.64 0.61-1.64 1.23-3.31 3.01-8 3.01-8 4.14-9.13z"/>
		<path class="s55" d="m696 432c3.17 1.03 3.97 1.95 5.63 4.91q0.81 1.85 1.58 3.72 0.43 1 0.87 2.03 1.38 3.23 2.73 6.46 0.9 2.1 1.79 4.2 1.35 3.14 2.68 6.29 2.28 5.47 4.8 10.84 0.5 1.07 1.01 2.18 0.96 2.06 1.96 4.1c1.47 3.18 2.08 4.78 1.13 8.22q-0.58 1.01-1.18 2.05c-2.16-3.25-3.56-6.57-5.01-10.17q-0.44-1.06-0.88-2.16-1.4-3.43-2.8-6.86-1.81-4.46-3.63-8.92c-0.45-1.1-0.45-1.1-0.91-2.22q-3.67-8.92-7.65-17.71c-2.12-4.75-2.12-4.75-2.12-6.96z"/>
		<path class="s56" d="m526 285c18.22 0.73 38.05 9.08 52 21q0 1.48 0 3c-3.66-1.34-6.66-3-9.88-5.19-13.4-8.66-27.36-13.51-43.12-15.81q0.49-1.48 1-3z"/>
		<path class="s57" d="m293 578q3.38 0.11 6.75 0.38 1.84 0.13 3.73 0.27c3.52 0.35 3.52 0.35 5.89 0.84 2.73 0.53 5.39 0.81 8.15 1.05 1.53 0.13 1.53 0.13 3.1 0.26 1.58 0.13 1.58 0.13 3.19 0.26 1.61 0.14 1.61 0.14 3.26 0.28q3.96 0.33 7.93 0.66 0 0.49 0 1-2.95 0-6 0 0 0.99 0 2c-6.27 3.14-15.4 0.73-21.98-0.49-4.65-0.79-9.32-1.16-14.02-1.51-0.56-1.94-0.56-1.94-1-4q0.49-0.49 1-1z"/>
		<path class="s58" d="m784 731q-0.49 2.46-1 5c-3.21 0.95-6.08 1.12-9.42 1.1q-1.53-0.01-3.11-0.01-1.58-0.01-3.22-0.03-1.61 0-3.27-0.01-3.99-0.02-7.98-0.05 0.99-2.96 2-6 5.37-0.29 10.75-0.56 1.52-0.09 3.08-0.17 1.46-0.07 2.97-0.15 1.34-0.07 2.73-0.14c2.34 0.02 4.23 0.34 6.47 1.02z"/>
		<path class="s59" d="m327 657q1.97 0.99 4 2-0.4 1.64-0.8 3.33c-3.63 13.2-3.63 13.2-5.2 26.67q1.97 0.49 4 1 0 0.99 0 2c-5.42-0.69-10.68-1.76-16-3q0-0.99 0-2 1.39-0.28 2.83-0.57c3.42-1.15 3.42-1.15 4.74-4.45q0.55-1.87 1.12-3.79 0.3-0.99 0.6-2.01c1.87-6.32 3.37-12.73 4.71-19.18z"/>
		<path class="s60" d="m461 580q-1.48 0.99-3 2c-0.99-0.5-0.99-0.5-2-1q0 0.99 0 2c-1.69-0.4-1.69-0.4-3.41-0.8q-2.33-0.54-4.65-1.07c-1.1-0.27-1.1-0.27-2.22-0.53-13.84-3.15-27.54-3.95-41.66-4.22q-2.5-0.06-5-0.12-6.03-0.14-12.06-0.26 0-0.49 0-1c25.17-2.52 49.43-0.82 74 5z"/>
		<path class="s61" d="m299 524q1.48 0 3 0c-0.66 5.64-2.56 10.61-4.56 15.88q-0.49 1.31-1 2.66-1.21 3.23-2.44 6.46c1.98 0.66 3.96 1.32 6 2q0 1.97 0 4-2.19-0.17-4.38-0.38-1.21-0.1-2.46-0.21c-2.16-0.41-2.16-0.41-4.16-2.41 0.41-6.37 3.21-12.64 5.56-18.5q0.47-1.21 0.96-2.45c2.33-5.9 2.33-5.9 3.48-7.05z"/>
		<path class="s62" d="m407 565c23.27-0.69 43.31 1.47 65 10q-1.48 1.48-3 3-1.68-0.59-3.41-1.21c-9.8-3.4-19.33-6.11-29.59-7.79q-1.73-0.29-3.52-0.59c-8.47-1.31-16.92-1.95-25.48-2.41q0-0.49 0-1z"/>
		<path class="s63" d="m408 670c2.74 2.74 2.85 5.16 3.63 8.94q0.38 1.86 0.78 3.77c0.59 3.29 0.59 3.29 0.59 6.29-5.03-0.53-10.02-1.11-15-2 1.49-4.22 3.61-7.62 6.13-11.31q1.08-1.6 2.19-3.24c0.83-1.21 0.83-1.21 1.68-2.45z"/>
		<path class="s64" d="m248.76 730.71q1.67 0.01 3.39 0.03c1.75 0.03 1.75 0.03 3.54 0.07q1.76 0.02 3.57 0.04 4.37 0.06 8.74 0.15c-0.99 0.49-0.99 0.49-2 1-0.66 2.53-0.66 2.53-1 5q-5.12 0.12-10.25 0.19-1.44 0.04-2.93 0.07-1.4 0.02-2.84 0.03-1.28 0.03-2.6 0.05c-2.86-0.41-4.23-1.45-6.38-3.34 2.6-3.38 4.63-3.36 8.76-3.29z"/>
		<path class="s65" d="m510 680q0.99 0 2 0 1.51 3.69 3 7.38 0.43 1.04 0.87 2.11c2.13 5.28 2.13 5.28 2.13 7.51-4.62 0-9.24 0-14 0 0.84-4.21 1.89-7.41 3.56-11.31 0.69-1.61 0.69-1.61 1.38-3.24 0.53-1.21 0.53-1.21 1.06-2.45z"/>
		<path class="s66" d="m675 660q0.99 0 2 0c1.64 2.26 3.15 4.51 4.63 6.88 0.63 0.97 0.63 0.97 1.27 1.97 3.1 4.88 3.1 4.88 3.1 7.15q-2.65 0.76-5.31 1.5-1.47 0.42-2.99 0.84c-2.7 0.66-2.7 0.66-5.7 0.66 0.99-6.27 1.98-12.54 3-19z"/>
		<path class="s67" d="m517 292q0.49 0.99 1 2 2.96 0.22 5.94 0.25c15.88 0.95 34.17 8 46.06 18.75q0 0.99 0 2c-4.08-1.48-7.55-3.49-11.25-5.75-12.23-7.2-27.37-13.03-41.75-12.25q0-2.46 0-5z"/>
		<path class="s68" d="m593 409q0 0.99 0 2 0.99 0.49 2 1c-4.89 1.12-9.83 1.57-14.81 2.06q-1.29 0.14-2.62 0.28c-5.22 0.52-10.32 0.75-15.57 0.66q-0.49-0.99-1-2c1-2 1-2 2.8-2.63 9.68-1.9 19.39-1.54 29.2-1.37z"/>
		<path class="s69" d="m325 431q0.99 0 2 0c-0.66 4.07-1.95 7.58-3.55 11.38q-0.37 0.9-0.76 1.83-1.22 2.9-2.44 5.79-1.59 3.78-3.17 7.56-0.39 0.92-0.78 1.87c-2.56 6.14-4.95 12.34-7.3 18.57q-1.48-0.99-3-2c1.56-4.9 3.43-9.61 5.41-14.36q0.48-1.16 0.98-2.37 1.03-2.47 2.06-4.94 1.57-3.78 3.14-7.56 1-2.41 2-4.81 0.47-1.13 0.95-2.29c1.3-3.1 2.59-5.86 4.46-8.67z"/>
		<path class="s70" d="m456 583c13.53 3.28 25.13 8.92 37 16-0.99 0.5-0.99 0.5-2 1q-3.2-1.24-6.31-2.69c-10.25-4.56-20.59-7.62-31.69-9.31q1.48-2.46 3-5z"/>
		<path class="s71" d="m456 581c11-0.49 21.83 4.16 31 10q-0.49 1.48-1 3c-4.01-0.32-7-1.41-10.5-3.25-6.26-3.29-12.81-5.49-19.5-7.75q0-0.99 0-2z"/>
		<path class="s72" d="m550 586q0 1.48 0 3c-1.54 0.8-1.54 0.8-3.11 1.61q-2.04 1.07-4.08 2.14c-1.01 0.52-1.01 0.52-2.04 1.05-3.94 2.08-7.34 4.32-10.77 7.2q-0.99 0.49-2 1 0.49-1.97 1-4 0.99 0 2 0 0-0.99 0-2c-2.48 1.49-2.48 1.49-5 3q0-1.97 0-4 5.15-2.55 10.31-5.06c1.47-0.73 1.47-0.73 2.96-1.47q1.4-0.68 2.84-1.38 1.29-0.63 2.62-1.29c2.27-0.8 2.27-0.8 5.27 0.2z"/>
		<path class="s73" d="m468 577c24.3 11.61 24.3 11.61 27 17-4.95-0.64-9.01-2.77-13.44-4.94-5.88-2.88-5.88-2.88-12.03-5.13q-1.25-0.46-2.53-0.93-0.49-1.48-1-3 0.99-1.48 2-3z"/>
		<path class="s74" d="m686 422c4.26 2.13 5.79 3.81 7.46 8.25q0.58 1.52 1.18 3.09c0.58 1.6 0.58 1.6 1.17 3.22q0.61 1.59 1.23 3.23c2.96 7.85 2.96 7.85 2.96 10.21-1.98 0.99-1.98 0.99-4 2q-2.15-5.68-4.27-11.37-0.73-1.94-1.46-3.87-1.05-2.78-2.08-5.56-0.63-1.67-1.27-3.38c-0.92-2.82-0.92-2.82-0.92-5.82z"/>
		<path class="s75" d="m365 659q1.48 0.99 3 2-1.08 1.04-2.19 2.1c-2.88 2.88-5.36 6.03-7.81 9.28q-0.65 0.85-1.32 1.72-4.46 5.86-8.68 11.9-1.97-1.48-4-3 0.99 0 2 0 0.36-0.8 0.73-1.63c4.11-7.67 10.98-17.51 18.27-22.37z"/>
		<path class="s54" d="m564 585q-0.49 1.48-1 3 0.99 0.49 2 1-1.36 0.33-2.75 0.66c-8.28 2.09-16.04 4.67-23.91 7.97-3.08 1.26-6.17 2.36-9.34 3.37 2-2.13 3.91-3.68 6.44-5.12q0.99-0.56 2.01-1.14 1.04-0.58 2.11-1.18 1.07-0.59 2.17-1.21c14.83-8.13 14.83-8.13 22.27-7.35z"/>
		<path class="s76" d="m437 332q0.99 0.49 2 1-0.88 1.5-1.79 3.04c-8.56 14.72-13.02 28.1-15.21 44.96q-0.99-0.49-2-1c-0.46-16.69 6.14-35.29 17-48z"/>
		<path class="s77" d="m722 576c1.88 1.5 1.88 1.5 3 3q-1.22 0.12-2.47 0.24-4.66 0.46-9.33 0.93-2.07 0.2-4.15 0.41c-9.47 0.94-18.93 1.94-28.39 3.09-3.92 0.35-7.72 0.39-11.66 0.33q0-0.49 0-1 9.87-1.5 19.75-2.99 3.36-0.51 6.72-1.02 4.83-0.73 9.66-1.46c1.5-0.23 1.5-0.23 3.02-0.46 10.05-1.5 10.05-1.5 13.85-1.07z"/>
		<path class="s78" d="m512 205c2.5 2.5 3.04 4.65 4.13 8q0.52 1.6 1.07 3.25c0.8 2.75 0.8 2.75 0.8 4.75-3.63 0-7.26 0-11 0 0.51-5.97 2.39-10.64 5-16z"/>
		<path class="s79" d="m299.39 565.73c1.89 0.34 1.89 0.34 3.82 0.68q2.02 0.39 4.04 0.78 3.06 0.55 6.13 1.1 2.01 0.36 4.03 0.72c7.16 1.3 14.35 2.22 21.59 2.99q0 0.49 0 1c-16.82 0.62-33.5-2.01-50-5 3.54-3.42 5.67-3.15 10.39-2.27z"/>
		<path class="s80" d="m513 388c6.94 6.94 6.94 6.94 8 9-0.91 4.66-3.14 8.24-6 12q-0.99 0-2 0c0-6.93 0-13.86 0-21z"/>
		<path class="s81" d="m279 729q0.49 2.46 1 5c3.3 0 6.6 0 10 0q0 0.49 0 1c-12.38 0.5-12.38 0.5-25 1q0.49-1.97 1-4-0.49-0.99-1-2c9.41-1.15 9.41-1.15 14-1z"/>
		<path class="s82" d="m571 386c10.89 0 21.78 0 33 0q-1.48 0.99-3 2c2.75 0.92 4.36 1.11 7.19 1.06q1.88-0.03 3.81-0.06 0 0.49 0 1-2.96 0-6 0c-0.66 3.96-1.32 7.92-2 12q-0.49 0-1 0c0-3.3 0-6.6 0-10-2.97-0.5-2.97-0.5-6-1q0 2.46 0 5-0.49 0-1 0c-0.33-2.31-0.66-4.62-1-7q0.99 0 2 0 0-0.99 0-2c-8.58 0-17.16 0-26 0q0-0.49 0-1z"/>
		<path class="s83" d="m582 665q0.99 0 2 0c0.5 7.92 0.5 7.92 1 16q-1.48-1.97-3-4c-3.76-5.12-3.76-5.12-9.48-7.41q-1.33-0.11-2.71-0.21-1.34-0.12-2.73-0.23-1.02-0.07-2.08-0.15 0-0.49 0-1c5.42-1.2 10.42-2.14 16-2q0.49-0.49 1-1z"/>
		<path class="s84" d="m335 422q0.99 0 2 0c-0.56 5.44-1.94 9.92-4.06 14.94q-0.42 1.02-0.86 2.07-1.03 2.5-2.08 4.99-1.97 0-4 0c0.7-4.47 2.25-8.51 3.94-12.69q0.39-1.01 0.8-2.05c1.16-2.88 2.04-5.04 4.26-7.26z"/>
		<path class="s85" d="m388 381c0 2.97 0 5.94 0 9-5.87-0.52-10.55-1.76-16-4 2.8-1.87 4.82-2.69 8-3.63 1.3-0.39 1.3-0.39 2.63-0.78 2.37-0.59 2.37-0.59 5.37-0.59z"/>
		<path class="s86" d="m507 287q1.48 0.99 3 2c-0.52 6.69-1.1 13.35-2 20q-0.49 0-1 0c-0.33-3.96-0.66-7.92-1-12q-1.56 0.14-3.18 0.29-2.06 0.17-4.13 0.34c-1.04 0.09-1.04 0.09-2.09 0.19-3.86 0.3-5.29 0.39-8.6-1.82 6.43-1.32 12.43-2.25 19-2 0-2.31 0-4.62 0-7z"/>
		<path class="s87" d="m697 454c1.85 2.77 2.96 5.17 4.16 8.25q0.6 1.52 1.21 3.09c0.62 1.6 0.62 1.6 1.25 3.22q0.63 1.59 1.28 3.23c3.1 7.96 3.1 7.96 3.1 10.21q-1.48 0.49-3 1-2.51-6.18-5-12.38c-0.72-1.76-0.72-1.76-1.45-3.56q-0.67-1.67-1.36-3.4-0.63-1.54-1.27-3.14c-0.92-2.52-0.92-2.52-0.92-4.52q0.99 0 2 0 0-0.99 0-2z"/>
		<path class="s88" d="m722 567q0 1.48 0 3c-13.07 1.94-25.77 3.52-39 3q0-0.49 0-1 1.28-0.17 2.6-0.35 4.78-0.65 9.57-1.3 2.07-0.29 4.14-0.57 2.98-0.4 5.96-0.81 1.78-0.24 3.61-0.49c2.99-0.41 2.99-0.41 5.34-1.04 2.59-0.64 5.12-0.5 7.78-0.44z"/>
		<path class="s89" d="m494 589q3.53 0.9 7 2 0.49 0.99 1 2c-1.98-0.66-3.96-1.32-6-2q0.77 1.14 1.56 2.31 0.71 1.33 1.44 2.69-0.49 1.48-1 3-1.48 0.49-3 1 0.49 0.99 1 2c-3-1-3-1-4.31-2.38-2.28-2.19-4.85-3.29-7.69-4.62q1.97-1.97 4-4c1.98 0.66 3.96 1.32 6 2q-0.49-0.99-1-2 0.49-0.99 1-2z"/>
		<path class="s90" d="m400.34 406.86q1.42 0.08 2.89 0.16 1.54 0.08 3.12 0.16c1.62 0.1 1.62 0.1 3.27 0.2q1.63 0.08 3.3 0.17 4.04 0.21 8.08 0.45 0 0.99 0 2 1.48 0.49 3 1-6.16 0.08-12.31 0.13-1.74 0.02-3.54 0.05c-1.68 0.01-1.68 0.01-3.39 0.02-1.55 0.01-1.55 0.01-3.12 0.03-2.64-0.23-2.64-0.23-5.64-2.23 2-2 2-2 4.34-2.14z"/>
		<path class="s91" d="m276 576q3.41 0.17 6.81 0.38 1.89 0.1 3.83 0.21c3.36 0.41 3.36 0.41 6.36 2.41q-0.49 0.99-1 2 0.99 0.49 2 1c-6.93 0.23-13.22-0.58-20-2q0.99-1.97 2-4z"/>
		<path class="s92" d="m421 408c7.92 0 15.84 0 24 0q0 0.49 0 1c-2.64 0-5.28 0-8 0q0 0.99 0 2 0.99 0.99 2 2c-12.87-0.5-12.87-0.5-26-1q0-0.49 0-1c2.64-0.33 5.28-0.66 8-1q0-0.99 0-2z"/>
		<path class="s93" d="m637 381c5.4 1.16 10.71 2.42 16 4-2.8 1.87-4.82 2.69-8 3.63q-1.29 0.38-2.63 0.78c-2.37 0.59-2.37 0.59-5.37 0.59 0-2.97 0-5.94 0-9z"/>
		<path class="s94" d="m478 574c7.12 1.02 13.75 8.23 18.19 13.56 0.89 1.21 0.89 1.21 1.81 2.44-3.84-1.39-7.03-3.19-10.44-5.44-3.77-2.45-7.47-4.68-11.56-6.56q0.99-1.97 2-4z"/>
		<path class="s95" d="m607 565q0 0.49 0 1-0.95 0.12-1.94 0.24-4.44 0.57-8.87 1.14-1.5 0.18-3.05 0.38c-6.76 0.87-13.45 1.95-20.14 3.24q0-0.99 0-2-1.48-0.49-3-1c12.46-2.71 24.26-3.36 37-3z"/>
		<path class="s96" d="m717 484c2.63 3.94 4.37 8.1 6.25 12.44q0.58 1.28 1.18 2.6 0.53 1.24 1.09 2.52 0.49 1.13 1 2.29c0.61 2.73-0.05 3.83-1.52 6.15-2.64-3.96-4.29-8.18-6.13-12.56q-0.55-1.31-1.12-2.66-0.53-1.25-1.07-2.53-0.48-1.15-0.98-2.33c-0.7-1.92-0.7-1.92-0.7-3.92q0.99 0 2 0 0-0.99 0-2z"/>
		<path class="s97" d="m542.19 601.94q1.62 0.29 3.29 0.59c1.25 0.23 1.25 0.23 2.52 0.47q0 0.49 0 1c-1.1 0.02-1.1 0.02-2.23 0.04-6.34 0.19-6.34 0.19-11.58 3.4q-1.08 1.26-2.19 2.56c-3.31 1.31-3.31 1.31-6 2q0-2.46 0-5 1.48-0.49 3-1 0.98-0.99 2-2c3.65-3.65 6.43-2.93 11.19-2.06z"/>
		<path class="s98" d="m708 389q0.49 0 1 0 0.97 5.03 1.94 10.06 0.27 1.41 0.55 2.86c1.49 7.76 2.65 15.17 2.51 23.08-2.18-3.65-2.75-7.49-3.44-11.62-0.97-5.6-2.17-10.91-4.11-16.27-0.56-2.64-0.17-4.52 0.55-7.11q0.49-0.49 1-1z"/>
		<path class="s99" d="m404 386c6.43-0.1 12.66-0.15 19 1-3.09 2.06-3.71 2.24-7.19 2.13-1.88-0.07-1.88-0.07-3.81-0.13q0.49 1.54 1 3.13c0.97 3.35 1.17 6.36 1 9.87q-1.48 0-3 0c-1.28-2.57-1.33-4.77-1.56-7.62q-0.13-1.5-0.26-3.04-0.09-1.15-0.18-2.34c-2.48-0.99-2.48-0.99-5-2q0-0.49 0-1z"/>
		<path class="s100" d="m285 539c1.41 4.23-0.34 7.06-1.94 11-2.27 5.33-2.27 5.33-3.06 11q-0.99 0-2 0 0-0.99 0-2-1.48 0-3 0c1.35-4.14 2.81-8.21 4.44-12.25q0.61-1.55 1.24-3.14c1.32-2.61 1.32-2.61 4.32-4.61z"/>
		<path class="s101" d="m295 543q-0.49 2.96-1 6c1.98 0.66 3.96 1.32 6 2q0 1.97 0 4-2.19-0.17-4.38-0.38-1.21-0.1-2.46-0.21c-2.16-0.41-2.16-0.41-4.16-2.41 0.2-3.2 0.47-5.31 2.44-7.88 1.56-1.12 1.56-1.12 3.56-1.12z"/>
		<path class="s102" d="m322 677c1.88 3.17 2.09 5.35 2 9q0.49 1.48 1 3c2.02 0.73 2.02 0.73 4 1q0 0.99 0 2c-5.42-0.69-10.68-1.76-16-3q0-0.99 0-2 1.39-0.25 2.81-0.5c3.58-1.68 3.78-2.11 5.06-5.63q0.61-1.92 1.13-3.87z"/>
		<path class="s103" d="m315 389q0.99 0.49 2 1c0.49 7.09-0.9 12.7-2.98 19.47-1.38 4.79-2.26 9.61-3.02 14.53q-0.49 0-1 0c-0.41-8.01 0.82-15.31 2.5-23.13q0.36-1.71 0.72-3.47 0.88-4.2 1.78-8.4z"/>
		<path class="s104" d="m541 575q1.97 0.99 4 2c-2.01 2.12-4.02 3.79-6.47 5.38q-0.97 0.63-1.98 1.29-2.05 1.33-4.1 2.66-0.98 0.64-1.98 1.29-0.89 0.58-1.8 1.17c-1.74 1.26-3.19 2.65-4.67 4.21q-0.99-0.49-2-1c12.49-12.85 12.49-12.85 19-17z"/>
		<path class="s105" d="m437 409c5.61 0 11.22 0 17 0q0 2.46 0 5-3.66-0.17-7.31-0.38c-1.04-0.04-1.04-0.04-2.09-0.09-3.67-0.21-5.48-0.45-8.6-2.53q0.49-0.99 1-2z"/>
		<path class="s106" d="m469 377q0 0.49 0 1-6.15 0.8-12.31 1.56-1.72 0.23-3.48 0.46c-7.27 0.89-13.96 0.99-21.21-0.02q0-0.49 0-1 5.75-0.76 11.5-1.5c1.62-0.21 1.62-0.21 3.27-0.43 14.87-1.91 14.87-1.91 22.23-0.07z"/>
		<path class="s107" d="m699 557q0 0.99 0 2c2.31 0 4.62 0 7 0q0 0.49 0 1c-11.95 1.47-23.99 1.09-36 1q0-0.49 0-1 5.84-0.76 11.69-1.5 1.64-0.21 3.34-0.43 1.59-0.21 3.23-0.41 1.46-0.19 2.97-0.38c2.61-0.26 5.15-0.33 7.77-0.28z"/>
		<path class="s108" d="m371.31 399.25q1.16 0.43 2.36 0.88 1.15 0.43 2.33 0.87c2.32 0.71 4.66 1.35 7 2q-1.48 1.97-3 4c-4.6-0.54-7.87-1.77-11.88-4.06q-1.44-0.82-2.92-1.66-1.09-0.63-2.2-1.28c3.28-2.04 4.74-2.15 8.31-0.75z"/>
		<path class="s51" d="m749 575c-0.99 0.5-0.99 0.5-2 1q0.49 1.97 1 4c-3.29 1.1-5.74 1.1-9.19 1.06-1.63-0.01-1.63-0.01-3.29-0.02q-1.24-0.02-2.52-0.04c1.33-2.45 1.33-2.45 3-5 4.28-1.26 8.56-1.09 13-1z"/>
		<path class="s109" d="m547 595q-0.49 0.99-1 2 0.49 1.48 1 3c-7.42 1.49-7.42 1.49-15 3q-0.49-1.48-1-3 3.15-1.55 6.31-3.06 1.75-0.85 3.55-1.73c3.14-1.21 3.14-1.21 6.14-0.21z"/>
		<path class="s110" d="m292 568c5.94 0.99 5.94 0.99 12 2q-1.48 1.48-3 3 0 0.99 0 2c-2.64 0-5.28 0-8 0-1.06-1.81-1.06-1.81-2-4q0.49-1.48 1-3z"/>
		<path class="s111" d="m420 294q2.23 0.6 4.44 1.25 1.23 0.35 2.49 0.7c2.07 1.05 2.07 1.05 2.97 3.02 0.1 2.03 0.1 2.03-1.71 4.28-2.19 1.75-2.19 1.75-4.19 1.75q-1.01-2.18-2-4.38-0.55-1.21-1.13-2.46c-0.87-2.16-0.87-2.16-0.87-4.16z"/>
		<path class="s112" d="m593 366q1.48 0.49 3 1c0.33 3.96 0.66 7.92 1 12-5.78 2.01-10.9 2.22-17 2q0-0.99 0-2c4.62 0 9.24 0 14 0q-0.49-2.46-1-5c-0.12-2.68-0.05-5.32 0-8z"/>
		<path class="s113" d="m480.53 594.71c1.47 0.54 1.47 0.54 2.97 1.1q1.46 0.54 2.97 1.08c2.53 1.11 2.53 1.11 4.53 3.11q-0.98 0.98-2 2c-2.38-0.24-2.38-0.24-5.12-0.88-1.37-0.3-1.37-0.3-2.76-0.61q-1.05-0.25-2.12-0.51 0-0.99 0-2-1.48-0.49-3-1 0-0.99 0-2c2-1 2-1 4.53-0.29z"/>
		<path class="s114" d="m735 577q0 1.48 0 3 0.99 0.99 2 2c-4.95 0.33-9.9 0.66-15 1q0.49-1.97 1-4c4.12-1.29 7.67-2.26 12-2z"/>
		<path class="s115" d="m322 463q1.48 0.49 3 1c-3.48 12.26-3.48 12.26-6 17-2.1 0.68-2.1 0.68-4 1 2.06-6.45 4.42-12.74 7-19z"/>
		<path class="s116" d="m645 403q0.49 1.48 1 3c-5.53 2.11-10.07 3.38-16 3 1-3 1-3 2.64-3.95 4.27-1.54 7.74-2.4 12.36-2.05z"/>
		<path class="s117" d="m407 565q6.53-0.04 13.06-0.06 1.84-0.02 3.73-0.03c5.84-0.01 11.46 0.01 17.21 1.09q-0.49 1.48-1 3c-1.69-0.2-1.69-0.2-3.41-0.4-9.86-1.14-19.68-2.04-29.59-2.6q0-0.49 0-1z"/>
		<path class="s118" d="m668 693q0.99 1.48 2 3c2.56 0.73 2.56 0.73 5 1q0 0.99 0 2-3.19 0.75-6.38 1.5-1.76 0.42-3.58 0.84c-3.04 0.66-3.04 0.66-5.04 0.66q0-0.99 0-2 1.48-0.49 3-1 0.49-1.23 1-2.5 0.49-1.23 1-2.5 1.48-0.49 3-1z"/>
		<path class="s119" d="m749 550c1.79 2.69 2.66 4.66 3.63 7.69q0.38 1.2 0.78 2.45 0.29 0.91 0.59 1.86-1.48 0.49-3 1c-2.48-2.2-3.61-4.06-4.69-7.19q-0.37-1.07-0.76-2.17-0.27-0.81-0.55-1.64 1.97 0 4 0 0-0.99 0-2z"/>
		<path class="s120" d="m631 681q0.49 1.48 1 3c-5.76 1.49-11.04 2.52-17 2q-0.99-1.48-2-3 2.81-0.51 5.63-1 1.55-0.28 3.16-0.56c3.12-0.43 6.07-0.52 9.21-0.44z"/>
		<path class="s121" d="m686 675q1.48 1.97 3 4c-5.94 1.32-11.88 2.64-18 4q-0.49-0.99-1-2 0.49-0.99 1-2c2.52-0.8 5-1.49 7.56-2.13 1.07-0.27 1.07-0.27 2.16-0.55q2.64-0.67 5.28-1.32z"/>
		<path class="s122" d="m595.88 574.94c1.6 0 1.6 0 3.24 0.01q3.94 0.02 7.88 0.05 0 0.49 0 1-1.8 0.2-3.66 0.4-2.42 0.27-4.84 0.54c-1.19 0.13-1.19 0.13-2.4 0.26q-7.56 0.84-15.1 1.8 0-0.99 0-2-1.48-0.49-3-1c5.94-1.3 11.83-1.11 17.88-1.06z"/>
		<path class="s123" d="m512 262q0.49 0 1 0c0.84 6.9 1.02 13.11 0 20q-0.99-0.99-2-2-0.99 0.49-2 1 0.46-4.47 0.94-8.94 0.13-1.27 0.26-2.57 0.13-1.21 0.26-2.45 0.12-1.12 0.24-2.27c0.3-1.77 0.3-1.77 1.3-2.77z"/>
		<path class="s124" d="m601 359c2 1 2 1 3.06 3.75 1.5 5.61 1.61 11.48 1.94 17.25q-1.48-0.49-3-1-0.51-3.31-1-6.63-0.28-1.83-0.56-3.72c-0.39-3.27-0.52-6.37-0.44-9.65z"/>
		<path class="s125" d="m473 589c4.91 1.44 9 3.54 13.38 6.13q0.95 0.55 1.94 1.12 2.34 1.37 4.68 2.75c-0.99 0.5-0.99 0.5-2 1-2.29-0.87-4.47-1.79-6.69-2.81-4.74-2.15-9.29-3.87-14.31-5.19q1.48-1.48 3-3z"/>
		<path class="s126" d="m608 350c2.96 2.47 3.77 4.76 4.75 8.44q0.39 1.41 0.8 2.87c0.72 4.27-0.54 6.95-2.55 10.69-1.17-7.32-2.25-14.62-3-22z"/>
		<path class="s127" d="m320 448q1.48 0.49 3 1-2.79 8.57-6 17c-2-3-2-3-1.75-5.36 0.78-2.74 1.72-5.32 2.81-7.95 0.55-1.33 0.55-1.33 1.1-2.68q0.41-0.99 0.84-2.01z"/>
		<path class="s128" d="m676 417q1.97 0 4 0c1.32 3.3 2.64 6.6 4 10q-2.46 0.49-5 1-0.76-1.9-1.5-3.81-0.42-1.06-0.84-2.15c-0.66-2.04-0.66-2.04-0.66-5.04z"/>
		<path class="s129" d="m500 338c1.55 1.48 1.55 1.48 3 4-0.11 2.88-0.35 5.43-0.81 8.25q-0.17 1.11-0.33 2.26-0.41 2.75-0.86 5.49-2.46 0.49-5 1 0.99-0.49 2-1-0.06-1.32-0.12-2.69c-0.03-5.83 1.15-11.58 2.12-17.31z"/>
		<path class="s130" d="m515 421q1.48 0.49 3 1c-0.52 4.17-1.71 6.25-4.56 9.31q-0.96 1.04-1.94 2.12-0.74 0.77-1.5 1.57c-1-2-1-2-0.29-4.31q0.54-1.33 1.1-2.69 0.54-1.32 1.08-2.69c1.11-2.31 1.11-2.31 3.11-4.31z"/>
		<path class="s131" d="m343 559q2.84 0.29 5.69 0.56 2.15 0.22 4.31 0.44 0 0.49 0 1c-9.24 0-18.48 0-28 0q0-0.49 0-1c6.28-2.37 11.42-1.83 18-1z"/>
		<path class="s132" d="m737 574q0.49 0.99 1 2c-5.84 1.7-10.93 2.25-17 2 2-3 2-3 5.19-3.69 3.62-0.29 7.17-0.38 10.81-0.31z"/>
		<path class="s133" d="m730 506c2 3 3.68 5.64 5 9-0.81 3.38-0.81 3.38-2 6-2.15-2.15-2.75-3.54-3.75-6.38q-0.42-1.15-0.86-2.33c-0.48-2.79 0.13-3.93 1.61-6.29z"/>
		<path class="s134" d="m327 435q0.99 0.49 2 1c-1.65 4.29-3.3 8.58-5 13q-1.48 0-3 0 0.43-2.13 0.88-4.25 0.24-1.18 0.49-2.39c0.63-2.36 1.38-4.27 2.63-6.36q0.99-0.49 2-1z"/>
		<path class="s135" d="m517 292q0.49 0.99 1 2 3.4 0.37 6.81 0.5c7.7 0.32 7.7 0.32 11.19 2.5-4.46 0.92-8.35 0.98-12.88 0.56q-1.71-0.15-3.49-0.31-1.29-0.12-2.63-0.25 0-2.46 0-5z"/>
		<path class="s136" d="m634 406q-1.48 0.49-3 1-0.49 1.48-1 3c-3.3 0-6.6 0-10 0q0.49-1.97 1-4 2.12-0.29 4.25-0.56 1.18-0.16 2.39-0.32c2.37-0.12 4.11 0.18 6.36 0.88z"/>
		<path class="s137" d="m424 390c-0.99 0.5-0.99 0.5-2 1 0.33 3.63 0.66 7.26 1 11q-0.99-0.49-2-1c-0.63-2.29-0.63-2.29-1.13-5.06q-0.25-1.37-0.5-2.79-0.18-1.06-0.37-2.15c-2.97-0.5-2.97-0.5-6-1q-0.49 1.97-1 4 0-2.46 0-5c4.69-1.12 7.54-0.81 12 1z"/>
		<path class="s138" d="m308 479q0.99 0 2 0c-0.53 5.35-2.47 9.36-5 14q-0.99 0-2 0c0.65-5.07 2.85-9.42 5-14z"/>
		<path class="s139" d="m546.38 591.8c0.8 0.59 0.8 0.59 1.62 1.2q-3.62 1.72-7.25 3.44-1.02 0.48-2.07 0.98-0.99 0.47-2.01 0.95c-0.91 0.43-0.91 0.43-1.84 0.87-1.92 0.8-3.81 1.3-5.83 1.76 2.6-2.91 5.61-4.79 8.94-6.81q1.55-0.97 3.15-1.96c2.91-1.23 2.91-1.23 5.29-0.43z"/>
		<path class="s96" d="m701 445c2.52 2.52 3.04 4.73 4.13 8.13q0.52 1.63 1.07 3.32 0.39 1.25 0.8 2.55-1.48 0.49-3 1c-1.65-4.29-3.3-8.58-5-13q0.99 0 2 0 0-0.99 0-2z"/>
		<path class="s140" d="m496 369q1.48 0 3 0 1.55 2.47 3 5 2.53 2.72 5.19 5.31 1.34 1.32 2.73 2.68 1.02 0.99 2.08 2.01-0.49 0.99-1 2c-1.19-1.26-1.19-1.26-2.41-2.55q-1.61-1.67-3.22-3.32-0.77-0.83-1.58-1.69c-3.36-3.44-5.97-5.3-10.79-6.44q1.48-0.49 3-1 0-0.99 0-2z"/>
		<path class="s141" d="m735 528c1.94 2.91 2.97 5.41 4.13 8.69q0.52 1.48 1.07 3.01 0.39 1.13 0.8 2.3-1.97 0-4 0c-3.63-9.41-3.63-9.41-2-14z"/>
		<path class="s142" d="m433 360q0.49 0 1 0c-0.33 4.95-0.66 9.9-1 15q-0.49-1.97-1-4-0.99 0-2 0-0.49 1.48-1 3c0.34-5.33 0.62-9.63 4-14z"/>
		<path class="s87" d="m686 425c1.9 2.86 2.69 4.93 3.63 8.19q0.38 1.34 0.78 2.73 0.29 1.02 0.59 2.08-1.48 0.49-3 1c-1.32-3.96-2.64-7.92-4-12q0.99-0.99 2-2z"/>
		<path class="s143" d="m425 383q0 0.99 0 2 0.99 0.49 2 1c-6.6 0-13.2 0-20 0q0-0.49 0-1 3.37-0.5 6.75-1 1.87-0.28 3.8-0.56c3.45-0.44 3.45-0.44 7.45-0.44z"/>
		<path class="s144" d="m505 688q0.99 0.49 2 1c-0.99 2.97-1.98 5.94-3 9q-2.46 0-5 0 0.64-2.22 1.31-4.44c0.37-1.23 0.37-1.23 0.74-2.49q0.47-1.02 0.95-2.07 1.48-0.49 3-1z"/>
		<path class="s145" d="m441 665q2.12-0.08 4.25-0.13 1.18-0.03 2.39-0.07c2.57 0.22 4.15 0.91 6.36 2.2q-2.46 0.49-5 1-0.49 2.96-1 6-0.49 0-1 0-0.37-1.42-0.75-2.88c-0.94-3.21-0.94-3.21-3.38-4.5q-0.92-0.3-1.87-0.62 0-0.49 0-1z"/>
		<path class="s146" d="m711 555q-0.99 1.97-2 4c-3.3 0-6.6 0-10 0q0.49-1.48 1-3c3.73-0.88 7.17-1.09 11-1z"/>
		<path class="s147" d="m300 551c3.3 0.66 6.6 1.32 10 2q-1.97 0.49-4 1-0.49 1.48-1 3c-2.64-0.33-5.28-0.66-8-1q1.48-0.49 3-1 0-1.97 0-4z"/>
		<path class="s148" d="m712 474c2.73 2.36 3.91 4.57 5 8q0 1.97 0 4c-3-1-3-1-4.75-4.31-1.58-4.67-1.58-4.67-0.25-7.69z"/>
		<path class="s149" d="m599 382c6.14 0.58 12.01 1.54 18 3q0 0.49 0 1-3.09 0.12-6.19 0.19c-1.72 0.05-1.72 0.05-3.48 0.1-3.61-0.31-5.45-1.14-8.33-3.29q0-0.49 0-1z"/>
		<path class="s150" d="m534 580q0.99 1.97 2 4-2.37 1.69-4.75 3.38-1.32 0.93-2.67 1.89c-2.15 1.44-4.23 2.64-6.58 3.73 3.8-4.56 7.75-8.85 12-13z"/>
		<path class="s151" d="m510 581q1.48 0 3 0c0 3.96 0 7.92 0 12q-1.48 0.49-3 1c0-4.29 0-8.58 0-13z"/>
		<path class="s152" d="m301 577c6.57-0.25 12.57 0.68 19 2q0 0.49 0 1-3.06 0.04-6.13 0.06-1.69 0.02-3.44 0.04c-3.24-0.09-6.25-0.49-9.43-1.1q0-0.99 0-2z"/>
		<path class="s153" d="m286 577c2.31 0.33 4.62 0.66 7 1q-0.49 1.48-1 3 0.99 0.49 2 1c-2.97 0-5.94 0-9 0q0.49-2.46 1-5z"/>
		<path class="s154" d="m312 402c2.42 3.68 1.95 6.21 1.19 10.44q-0.29 1.66-0.58 3.37-0.78 4.1-1.61 8.19-0.49 0-1 0c-0.3-7.55 0.57-14.59 2-22z"/>
		<path class="s155" d="m411 365c2.46 2.55 2.99 3.86 3.29 7.45-0.05 1.88-0.05 1.88-0.1 3.8-0.04 1.89-0.04 1.89-0.08 3.83q-0.06 1.44-0.11 2.92-0.99 0-2 0-0.22-1.57-0.44-3.19c-0.47-3.62-0.47-3.62-1.19-6.37-0.46-3.01 0.01-5.48 0.63-8.44z"/>
		<path class="s156" d="m581 667q-0.99 0.99-2 2-0.49 1.48-1 3-1.48-0.99-3-2c-2.51-0.46-2.51-0.46-5.19-0.63q-1.34-0.11-2.73-0.22-1.02-0.07-2.08-0.15 0-0.49 0-1c5.71-2.07 10.04-2 16-1z"/>
		<path class="s157" d="m532 593q0 0.99 0 2 0.99 0.49 2 1 0 0.99 0 2c-1.93 1.61-3.76 2.88-6 4q0.49-1.97 1-4 0.99 0 2 0 0-0.99 0-2c-2.48 1.49-2.48 1.49-5 3q0-1.97 0-4c3.75-2 3.75-2 6-2z"/>
		<path class="s158" d="m294 535q1.97 0.49 4 1c-0.66 2.64-1.32 5.28-2 8q-2.46 0.49-5 1c0.99-3.3 1.98-6.6 3-10z"/>
		<path class="s159" d="m325 431q0.99 0 2 0c-0.63 3.66-1.64 6.88-3.06 10.31q-0.54 1.32-1.1 2.68-0.41 0.99-0.84 2.01c-1.11-1.71-1.11-1.71-2-4 0.64-2.29 0.64-2.29 1.81-4.63q0.57-1.15 1.15-2.35 0.51-0.99 1.04-2.02 0.49-0.99 1-2z"/>
		<path class="s160" d="m696 432c2.83 1.03 3.83 1.68 5.27 4.38q0.48 1.35 0.98 2.75 0.5 1.35 1.02 2.75c0.36 1.05 0.36 1.05 0.73 2.12q-1.48 0.49-3 1-1.26-2.68-2.5-5.38c-0.7-1.49-0.7-1.49-1.41-3.02-1.09-2.6-1.09-2.6-1.09-4.6z"/>
		<path class="s161" d="m530 409c2.38 0.25 2.38 0.25 5 1 1.31 2.06 1.31 2.06 2 4-1.64-0.09-1.64-0.09-3.31-0.19-3.61-0.17-3.61-0.17-5.63 1.69q-0.52 0.74-1.06 1.5c1.88-5.75 1.88-5.75 3-8z"/>
		<path class="s162" d="m410 389q0.43 0.89 0.88 1.81c1.17 2.38 1.17 2.38 3.12 5.19 0.12 3.19 0.12 3.19 0 6q-1.48 0-3 0c-1.32-2.64-1.1-4.68-1.06-7.63q0.01-1.49 0.02-3.03 0.02-1.15 0.04-2.34z"/>
		<path class="s163" d="m471 584c2.97 0.99 5.94 1.98 9 3-0.99 0.5-0.99 0.5-2 1q-0.49 1.48-1 3c-2.31-0.99-4.62-1.98-7-3q0.49-1.97 1-4z"/>
		<path class="s164" d="m295.7 574.93c1.48 0.19 1.48 0.19 2.99 0.38 1.49 0.18 1.49 0.18 3.01 0.37q1.13 0.16 2.3 0.32-1.48 0.49-3 1 0 0.99 0 2c-3.63-0.33-7.26-0.66-11-1 3-3 3-3 5.7-3.07z"/>
		<path class="s165" d="m583 566q0.49 1.48 1 3c-3.63 0.66-7.26 1.32-11 2q0-0.99 0-2-1.48-0.49-3-1 2.12-0.51 4.25-1c1.18-0.28 1.18-0.28 2.39-0.56 2.36-0.44 2.36-0.44 6.36-0.44z"/>
		<path class="s166" d="m715 501c2.69 2.69 3.06 5.38 4 9q-1.48 1.48-3 3c-0.99-3.3-1.98-6.6-3-10q0.99 0 2 0 0-0.99 0-2z"/>
		<path class="s167" d="m390 406c2.97 0 5.94 0 9 0-1.06 2-1.06 2-3 4-3.69 0.25-3.69 0.25-7 0q0.49-1.97 1-4z"/>
		<path class="s168" d="m366 661c1.27 2.55 0.8 3.43 0.06 6.13q-0.29 1.08-0.59 2.19c-0.23 0.83-0.23 0.83-0.47 1.68q-2.95 0.49-6 1c1.78-4.04 4.4-7.46 7-11z"/>
		<path class="s169" d="m564 585q-0.49 1.48-1 3 0.99 0.49 2 1c-3.31 0.69-3.31 0.69-7 1-1.94-1.44-1.94-1.44-3-3 3.44-2.29 4.99-2.18 9-2z"/>
		<path class="s170" d="m487 581c3.63 0.57 5.26 1.92 7.75 4.56q0.92 0.96 1.86 1.94 0.68 0.74 1.39 1.5c-0.99 0.5-0.99 0.5-2 1-3.3-2.31-6.6-4.62-10-7q0.49-0.99 1-2z"/>
		<path class="s171" d="m449 578c5.94 0.99 5.94 0.99 12 2q-1.48 0.99-3 2-0.99-0.49-2-1 0 0.99 0 2c-4.45-0.99-4.45-0.99-9-2q0.99-0.49 2-1 0-0.99 0-2z"/>
		<path class="s172" d="m747 573q0.49 0.99 1 2-2.4 0.37-4.81 0.69c-1.34 0.19-1.34 0.19-2.71 0.38-2.48-0.07-2.48-0.07-4.3-1.55q-0.58-0.75-1.18-1.52c4.11-1.54 7.79-0.76 12 0z"/>
		<path class="s173" d="m608.19 388.94c1.88 0.03 1.88 0.03 3.81 0.06q0 0.49 0 1-2.96 0-6 0c-0.66 3.96-1.32 7.92-2 12q-0.49 0-1 0 0.03-1.04 0.07-2.12 0.03-1.36 0.05-2.75c0.04-1.36 0.04-1.36 0.08-2.75 0.04-2.57 0.04-2.57-2.2-4.38 2.75-0.92 4.36-1.11 7.19-1.06z"/>
		<path class="s174" d="m302 568q3.06 0.21 6.13 0.44c1.7 0.12 1.7 0.12 3.44 0.24 3.18 0.3 6.29 0.75 9.43 1.32q0 0.49 0 1-3.34 0.08-6.69 0.12c-1.86 0.04-1.86 0.04-3.76 0.08-3.36-0.19-5.55-0.74-8.55-2.2q0-0.49 0-1z"/>
		<path class="s175" d="m336 426q1.48 0.49 3 1c-0.99 3.3-1.98 6.6-3 10q-1.48-0.49-3-1c0.99-3.3 1.98-6.6 3-10z"/>
		<path class="s176" d="m296 508q0.99 0 2 0c-0.75 6.63-0.75 6.63-3 10q-0.99 0-2 0c0.75-6.63 0.75-6.63 3-10z"/>
		<path class="s177" d="m697 454c2.19 3.28 3 6.21 4 10q-1.48 0.49-3 1c-0.99-2.97-1.98-5.94-3-9q0.99 0 2 0 0-0.99 0-2z"/>
		<path class="s178" d="m487 400q0.99 0.49 2 1c-1.56 3.82-4.04 6.19-7 9q-1.48-0.49-3-1c2.64-2.97 5.28-5.94 8-9z"/>
		<path class="s179" d="m316 481q0.99 0 2 0c-0.51 3.72-1.12 6.73-3 10q-0.99 0-2 0c0.75-7.75 0.75-7.75 3-10z"/>
		<path class="s180" d="m319 460q1.97 0 4 0c-0.75 4.75-0.75 4.75-3 7q-1.48 0-3 0c0.88-5.88 0.88-5.88 2-7z"/>
		<path class="s181" d="m409 383q0 0.99 0 2c-2.19 2.19-2.98 2.65-6 3-2.75-0.94-2.75-0.94-5-2 3.74-2.5 6.54-3 11-3z"/>
		<path class="s182" d="m494 589q3.53 0.9 7 2 0.49 0.99 1 2c-1.98-0.66-3.96-1.32-6-2 0.77 1.18 0.77 1.18 1.56 2.38q0.71 1.29 1.44 2.62-0.49 0.99-1 2c-1.65-1.32-3.3-2.64-5-4q0.49-2.46 1-5z"/>
		<path class="s183" d="m306 476q0.99 0.49 2 1c-0.56 3.34-1.35 6.03-3 9q-0.99-0.49-2-1c0.5-3.73 0.87-5.81 3-9z"/>
		<path class="s184" d="m494 426c4.69 3.61 4.69 3.61 6 5q0 1.48 0 3c-3.38-1.19-5.65-2.28-8-5q0.99-1.48 2-3z"/>
		<path class="s185" d="m579 710q0.49 0.99 1 2c-1.25 1.5-1.25 1.5-3 3q-1.97 0-4 0 0-0.99 0-2-2.46 0-5 0 0-0.49 0-1c5.45-0.99 5.45-0.99 11-2z"/>
		<path class="s186" d="m744 556c1.94 0.63 1.94 0.63 4 2 0.75 3.13 0.75 3.13 1 6q-2.46 0-5 0c0.28-0.87 0.28-0.87 0.56-1.75 0.48-2.46 0.2-3.89-0.56-6.25z"/>
		<path class="s187" d="m699 557q0 0.99 0 2c2.31 0 4.62 0 7 0q0 0.49 0 1c-4.62 0-9.24 0-14 0q-0.49-0.99-1-2c2.93-0.98 4.96-1.08 8-1z"/>
		<path class="s188" d="m324.38 556.75c3.26 0.22 4.93 0.53 7.62 2.25-1 1-1 1-4.25 1.13-3.09-0.11-5.76-0.41-8.75-1.13 2-2 2-2 5.38-2.25z"/>
		<path class="s189" d="m537 402c3.18 0.34 4.02 1.02 6.25 3.44 1.75 2.56 1.75 2.56 1.75 4.56-3.32-1.17-5.83-2.15-8-5q0-1.48 0-3z"/>
		<path class="s190" d="m580 371c-1 2-1 2-2.56 2.63-3.5 0.53-6.9 0.43-10.44 0.37 2.14-2.14 3.08-2.48 5.94-3.19q1.03-0.26 2.09-0.54c1.97-0.27 1.97-0.27 4.97 0.73z"/>
		<path class="s191" d="m487 588c3.99 1 5.82 2.56 8 6-4.13-0.61-7.33-2.04-11-4q1.48-0.99 3-2z"/>
		<path class="s192" d="m535 587q1.48 0.49 3 1 0 0.99 0 2-2.18 1.29-4.38 2.56c-1.21 0.72-1.21 0.72-2.46 1.44q-1.06 0.49-2.16 1-0.99-0.49-2-1 1.89-1.8 3.81-3.56c1.06-0.99 1.06-0.99 2.15-2.01q1-0.7 2.04-1.43z"/>
		<path class="s193" d="m299 492q1.48 0 3 0c-0.5 3.69-1.1 5.6-4 8-0.63-2.31-0.63-2.31-1-5q0.99-1.48 2-3z"/>
		<path class="s194" d="m335 422q0.99 0 2 0c-0.33 2.31-0.66 4.62-1 7q-1.97 0.49-4 1c0.75-5.75 0.75-5.75 3-8z"/>
		<path class="s195" d="m689 420q0 0.99 0 2-1.48 0-3 0-0.49 2.46-1 5-0.99-0.49-2-1c-0.63-2.56-0.63-2.56-1-5 2.46-1.23 4.28-1.07 7-1z"/>
		<path class="s196" d="m472 413c1.98 0.66 3.96 1.32 6 2q-0.49 2.95-1 6c-2.48-0.99-2.48-0.99-5-2q0-3 0-6z"/>
		<path class="s197" d="m372 400q-0.49 1.48-1 3c-3.69-0.5-5.6-1.1-8-4 3.62-1.34 5.57-0.62 9 1z"/>
		<path class="s198" d="m518 301q0.49 0.99 1 2c2.97 0 5.94 0 9 0q-0.49 1.48-1 3c-2.97 0-5.94 0-9 0q0-2.46 0-5z"/>
		<path class="s199" d="m548 600q0 0.99 0 2 1.48 0.49 3 1-2.44 0.08-4.88 0.13-1.35 0.03-2.74 0.07c-2.38-0.2-2.38-0.2-4.38-2.2 3.2-1.07 5.66-1.07 9-1z"/>
		<path class="s200" d="m285 563c2.31 0.33 4.62 0.66 7 1q0 1.48 0 3c-2.31 0-4.62 0-7 0q0-2 0-4z"/>
		<path class="s201" d="m586 409c2.31 0 4.62 0 7 0q0 0.99 0 2 0.99 0.49 2 1c-3.3 0-6.6 0-10 0q0.49-1.48 1-3z"/>
		<path class="s202" d="m512 262q0.49 0 1 0c0.33 3.63 0.66 7.26 1 11q-1.48 0.49-3 1-0.04-2.72-0.06-5.44-0.02-1.5-0.04-3.06c0.1-2.5 0.1-2.5 1.1-3.5z"/>
		<path class="s203" d="m297 731c1.65 1.65 3.3 3.3 5 5q-1.97 1.48-4 3-1.48-1.48-3-3 0.99-0.99 2-2 0-1.48 0-3z"/>
		<path class="s204" d="m329 583c2.31 0 4.62 0 7 0q0 1.48 0 3c-2.97 0-5.94 0-9 0q0.99-0.49 2-1 0-0.99 0-2z"/>
		<path class="s205" d="m410 375q0.99 0.49 2 1c0 2.31 0 4.62 0 7q1.48 0.49 3 1-2.95 0.49-6 1c0.33-3.3 0.66-6.6 1-10z"/>
		<path class="s206" d="m573 713q0 0.99 0 2c-2.76 1.38-4.95 1.19-8 1q-0.99-0.99-2-2c3.47-1.16 6.36-1.07 10-1z"/>
		<path class="s207" d="m324 674q0.99 0 2 0-0.17 2.44-0.38 4.88c-0.1 1.35-0.1 1.35-0.21 2.74-0.41 2.38-0.41 2.38-2.41 4.38q-0.04-2.44-0.06-4.88-0.02-1.35-0.04-2.74c0.1-2.38 0.1-2.38 1.1-4.38z"/>
		<path class="s208" d="m405 668q1.48 1.48 3 3c-1.32 1.65-2.64 3.3-4 5q-1.48-0.99-3-2c1.32-1.98 2.64-3.96 4-6z"/>
		<path class="s209" d="m564 572q0 0.99 0 2c-2.31 0.66-4.62 1.32-7 2q0-0.99 0-2-0.99-0.49-2-1c5.63-2.13 5.63-2.13 9-1z"/>
		<path class="s210" d="m437 567c8.57-0.14 8.57-0.14 12 1q0 0.99 0 2-2.16-0.17-4.31-0.38-1.2-0.1-2.43-0.21c-2.26-0.41-2.26-0.41-5.26-2.41z"/>
		<path class="s211" d="m316 556c2.31 0 4.62 0 7 0q-0.99 0.99-2 2 1.48 0.99 3 2c-2.64 0-5.28 0-8 0q0-1.97 0-4z"/>
		<path class="s212" d="m277 553q1.48 0.99 3 2c0.19 3.13 0.19 3.13 0 6q-0.99 0-2 0 0-0.99 0-2-1.48 0-3 0 0.99-2.96 2-6z"/>
		<path class="s213" d="m637 406q0 1.48 0 3c-2.31 0-4.62 0-7 0q0.49-1.48 1-3c3-1 3-1 6 0z"/>
		<path class="s214" d="m519 396q0.99 0.49 2 1c-1.26 4.51-2.9 7.49-6 11 0.54-4.56 1.79-7.97 4-12z"/>
		<path class="s215" d="m486 370c3.3 0.66 6.6 1.32 10 2q-0.49 0.99-1 2c-3.3 0-6.6 0-10 0q0.49-1.97 1-4z"/>
		<path class="s216" d="m512 224q0.99 0.49 2 1c0 2.64 0 5.28 0 8q-1.48 0.49-3 1c0.33-3.3 0.66-6.6 1-10z"/>
		<path class="s217" d="m514 585c2.48 0.5 2.48 0.5 5 1-1.32 2.31-2.64 4.62-4 7q-0.49 0-1 0c0-2.64 0-5.28 0-8z"/>
		<path class="s218" d="m573 577c2.64 0 5.28 0 8 0q0 0.99 0 2c-2.64 0.33-5.28 0.66-8 1q0-1.48 0-3z"/>
		<path class="s219" d="m478 574q1.97 0.49 4 1-0.49 2.46-1 5c-2.48-0.99-2.48-0.99-5-2q0.99-1.97 2-4z"/>
		<path class="s92" d="m744 559c2 2 2 2 2 4q-0.99 0-2 0 0 0.99 0 2-0.99 0-2 0 0-0.99 0-2-2.46 0-5 0c2.32-1.55 4.51-2.8 7-4z"/>
		<path class="s220" d="m732 523q0.99 0 2 0c1.13 7.75 1.13 7.75 0 10-3.13-6.63-3.13-6.63-2-10z"/>
		<path class="s221" d="m702 444q1.48 0.49 3 1c1.19 3.06 1.19 3.06 2 6q-0.99 0-2 0-0.49 0.99-1 2c-0.66-2.97-1.32-5.94-2-9z"/>
		<path class="s222" d="m742 541q1.97 0 4 0 0.49 1.97 1 4-1.97 1.48-4 3-0.99-2.96-2-6 0.49-0.49 1-1z"/>
		<path class="s223" d="m333 436q0.99 0 2 0-0.49 2.95-1 6-1.48 0.49-3 1c0.88-5.88 0.88-5.88 2-7z"/>
		<path class="s224" d="m608 408c2.88-0.19 2.88-0.19 6 0q0.99 1.48 2 3c-2.97 0-5.94 0-9 0q0.49-1.48 1-3z"/>
		<path class="s225" d="m788 699q0.99 0.49 2 1c0 2.97 0 5.94 0 9q-1.48-1.48-3-3c0.31-3.69 0.31-3.69 1-7z"/>
		<path class="s226" d="m557 574q-0.49 1.48-1 3-2.46 0.49-5 1 0-1.48 0-3c2-1 2-1 6-1z"/>
		<path class="s227" d="m723 566c3.13-0.19 3.13-0.19 6 0q0 0.99 0 2c-2.71 1.35-5.01 1.07-8 1q0.99-1.48 2-3z"/>
		<path class="s228" d="m676 417q1.97 0 4 0 0.49 1.48 1 3-1.97 1.48-4 3-0.49-2.95-1-6z"/>
		<path class="s229" d="m449 331q0.99 0 2 0c-1.27 3.91-2.51 5.79-6 8 1.75-5.75 1.75-5.75 4-8z"/>
		<path class="s230" d="m770 732q1.97 0 4 0 0 0.99 0 2-0.99 0-2 0 0 1.48 0 3-1.48 0-3 0 0.49-2.46 1-5z"/>
		<path class="s231" d="m302 727q0.49 0 1 0c0 2.97 0 5.94 0 9q-1.97-1.48-4-3c1-3 1-3 3-6z"/>
		<path class="s232" d="m668 696c2.31 0.33 4.62 0.66 7 1q0 0.99 0 2-2.96 0.49-6 1-0.49-1.97-1-4z"/>
		<path class="s233" d="m666 688q1.48 0 3 0c0.19 2.38 0.19 2.38 0 5q-1.48 0.99-3 2c0-2.31 0-4.62 0-7z"/>
		<path class="s234" d="m705 459q1.48 0.49 3 1 0.49 2.95 1 6-1.48-0.49-3-1-0.49-2.95-1-6z"/>
		<path class="s235" d="m611 382q0 0.49 0 1c-8.57 0.29-8.57 0.29-12-2 4.52-1.37 7.59-0.47 12 1z"/>
		<path class="s236" d="m611 362c1.49 0.99 1.49 0.99 3 2-0.66 3.08-1.54 5.08-3 8 0-3.3 0-6.6 0-10z"/>
		<path class="s237" d="m471 303q1.48 0.99 3 2c-3.46 1.49-3.46 1.49-7 3q-0.99-0.99-2-2c1.98-0.99 3.96-1.98 6-3z"/>
		<path class="s238" d="m368 696c1.65 1.65 3.3 3.3 5 5q-2.46 0.49-5 1 0-3 0-6z"/>
		<path class="s239" d="m598 663q2.96 0 6 0 0.49 1.97 1 4c-2.64-0.66-5.28-1.32-8-2q0.49-0.99 1-2z"/>
		<path class="s240" d="m494 595q1.97 0.99 4 2 0 0.99 0 2-1.48 0.49-3 1 0.49 0.99 1 2-1.48-0.49-3-1 0.49-2.96 1-6z"/>
		<path class="s241" d="m553 587c1.94 0.38 1.94 0.38 4 1q0.49 0.99 1 2-2.96 0.49-6 1 0.49-1.97 1-4z"/>
		<path class="s242" d="m540 584q1.48 1.97 3 4c-2.38 0.63-2.38 0.63-5 1q-0.99-0.99-2-2 1.97-1.48 4-3z"/>
		<path class="s243" d="m442 577c2.31 0.33 4.62 0.66 7 1q0 0.99 0 2c-2.31-0.33-4.62-0.66-7-1q0-0.99 0-2z"/>
		<path class="s244" d="m726 508q1.48 1.48 3 3-0.99 1.97-2 4c-2-3-2-3-1.63-5.19q0.31-0.89 0.63-1.81z"/>
		<path class="s245" d="m316 458q1.48 0.49 3 1c-0.66 2.31-1.32 4.62-2 7-2-3-2-3-1.63-5.69q0.31-1.14 0.63-2.31z"/>
		<path class="s246" d="m696 432c1.94 0.75 1.94 0.75 4 2 0.75 2.13 0.75 2.13 1 4q-1.48 0-3 0c-0.66-1.98-1.32-3.96-2-6z"/>
		<path class="s247" d="m431 376q0.49 1.97 1 4c2.31 0 4.62 0 7 0-2.57 1.62-3.68 2.04-6.75 1.63q-1.11-0.31-2.25-0.63 0.49-2.46 1-5z"/>
		<path class="s248" d="m478 289q1.97 0 4 0-0.49 1.48-1 3-2.95 0.49-6 1c1.25-2 1.25-2 3-4z"/>
		<path class="s249" d="m517 287c2.64 0 5.28 0 8 0-2.33 1.21-4.5 2.17-7 3q-0.49 0.99-1 2 0-2.46 0-5z"/>
	</g>
</svg>